<?xml version="1.0" encoding="utf-8"?>
<!-- Generator: Adobe Illustrator 16.0.0, SVG Export Plug-In . SVG Version: 6.00 Build 0)  -->
<!DOCTYPE svg PUBLIC "-//W3C//DTD SVG 1.1//EN" "http://www.w3.org/Graphics/SVG/1.1/DTD/svg11.dtd">
<svg version="1.1" id="Layer_1" xmlns="http://www.w3.org/2000/svg" xmlns:xlink="http://www.w3.org/1999/xlink" x="0px" y="0px"
	 width="363.6px" height="45.516px" viewBox="0 0 363.6 45.516" enable-background="new 0 0 363.6 45.516" xml:space="preserve">
<g>
	<g>
		<path fill="#FFFFFF" d="M360.624,38.212c0.795,0,1.428,0.646,1.428,1.453c0,0.82-0.633,1.46-1.434,1.46
			c-0.795,0-1.439-0.64-1.439-1.46c0-0.808,0.645-1.453,1.439-1.453H360.624z M360.618,38.438c-0.639,0-1.162,0.549-1.162,1.227
			c0,0.691,0.523,1.234,1.168,1.234c0.646,0.006,1.164-0.542,1.164-1.228c0-0.685-0.518-1.233-1.164-1.233H360.618z M360.346,40.511
			h-0.258V38.89c0.135-0.02,0.266-0.038,0.459-0.038c0.244,0,0.406,0.051,0.504,0.123c0.096,0.071,0.148,0.181,0.148,0.336
			c0,0.212-0.143,0.342-0.316,0.394v0.013c0.141,0.026,0.238,0.155,0.271,0.394c0.037,0.252,0.076,0.349,0.104,0.401h-0.271
			c-0.039-0.052-0.078-0.2-0.111-0.414c-0.039-0.207-0.141-0.284-0.348-0.284h-0.182V40.511z M360.346,39.613h0.188
			c0.213,0,0.395-0.078,0.395-0.278c0-0.142-0.104-0.284-0.395-0.284c-0.084,0-0.143,0.006-0.188,0.013V39.613z"/>
	</g>
	<g>
		<path fill="#009A44" d="M81.041,38.212c0.795,0,1.428,0.646,1.428,1.453c0,0.82-0.633,1.46-1.434,1.46
			c-0.795,0-1.439-0.64-1.439-1.46c0-0.808,0.645-1.453,1.439-1.453H81.041z M81.035,38.438c-0.639,0-1.162,0.549-1.162,1.227
			c0,0.691,0.523,1.234,1.168,1.234c0.646,0.006,1.164-0.542,1.164-1.228c0-0.685-0.518-1.233-1.164-1.233H81.035z M80.763,40.511
			h-0.258V38.89c0.135-0.02,0.266-0.038,0.459-0.038c0.244,0,0.406,0.051,0.504,0.123c0.096,0.071,0.148,0.181,0.148,0.336
			c0,0.212-0.143,0.342-0.316,0.394v0.013c0.141,0.026,0.238,0.155,0.271,0.394c0.037,0.252,0.076,0.349,0.104,0.401h-0.271
			c-0.039-0.052-0.078-0.2-0.111-0.414c-0.039-0.207-0.141-0.284-0.348-0.284h-0.182V40.511z M80.763,39.613h0.188
			c0.213,0,0.395-0.078,0.395-0.278c0-0.142-0.104-0.284-0.395-0.284c-0.084,0-0.143,0.006-0.188,0.013V39.613z"/>
	</g>
	<g>
		<path fill="#FFFFFF" stroke="#FFFFFF" stroke-width="0.3517" stroke-miterlimit="10" d="M97.52,22.542v14.237
			c0.011,1.284,0.17,2.207,0.477,2.764c0.318,0.551,0.785,1.023,1.399,1.417h-6.354c0.659-0.415,1.153-0.943,1.482-1.579
			c0.252-0.516,0.384-1.383,0.395-2.601V21.703c-0.011-1.316-0.171-2.238-0.477-2.766c-0.33-0.559-0.796-1.031-1.4-1.415h5.219
			c0.098,0.242,0.384,0.68,0.855,1.316l13.167,16.789V21.703c-0.011-1.306-0.169-2.226-0.478-2.766
			c-0.329-0.559-0.796-1.031-1.398-1.415h6.354c-0.658,0.417-1.151,0.944-1.482,1.581c-0.252,0.504-0.384,1.371-0.395,2.6v20.409
			c-1.876-0.635-3.512-1.881-4.904-3.736L97.52,22.542z"/>
		<path fill="#FFFFFF" stroke="#FFFFFF" stroke-width="0.3517" stroke-miterlimit="10" d="M132.44,16.914
			c2.152,0,4.208,0.494,6.172,1.479c2.338,1.187,4.082,2.958,5.233,5.318c0.846,1.744,1.269,3.536,1.269,5.381
			c0,2.567-0.769,4.934-2.304,7.096c-1.372,1.931-3.193,3.368-5.465,4.311c-1.679,0.702-3.473,1.056-5.383,1.056
			c-3.084,0-5.788-0.877-8.113-2.634c-1.734-1.306-3.023-2.93-3.868-4.872c-0.658-1.492-0.988-3.056-0.988-4.691
			c0-2.347,0.643-4.543,1.926-6.583c1.219-1.952,2.957-3.451,5.218-4.493C128.078,17.368,130.18,16.914,132.44,16.914z
			 M131.929,19.482c-1.71,0-3.335,0.459-4.871,1.382c-1.404,0.856-2.463,2.084-3.176,3.687c-0.582,1.337-0.873,2.748-0.873,4.23
			c0,1.941,0.482,3.792,1.448,5.546c1.713,3.116,4.257,4.674,7.637,4.674c2.887,0,5.162-0.981,6.831-2.947
			c1.438-1.689,2.155-3.824,2.155-6.402c0-2.766-0.811-5.118-2.436-7.062C136.923,20.518,134.684,19.482,131.929,19.482z"/>
		<path fill="#FFFFFF" stroke="#FFFFFF" stroke-width="0.3517" stroke-miterlimit="10" d="M153.107,19.991v16.411
			c0,1.592,0.126,2.705,0.379,3.34c0.229,0.495,0.636,0.901,1.219,1.218h-6.766c0.624-0.328,1.053-0.789,1.282-1.383
			c0.209-0.646,0.315-1.706,0.315-3.175V22.081c0-1.59-0.127-2.704-0.381-3.341c-0.229-0.492-0.635-0.899-1.217-1.218h5.168
			c0.077,0.011,0.63,0,1.662-0.033c0.604-0.022,1.103-0.033,1.497-0.033c2.271,0,4.034,0.462,5.284,1.382
			c0.746,0.55,1.332,1.257,1.761,2.123c0.395,0.791,0.593,1.598,0.593,2.421c0,1.173-0.438,2.309-1.316,3.407
			c-1.099,1.337-2.59,2.243-4.478,2.714c1.207,1.658,2.809,3.681,4.806,6.073c2.173,2.602,4.203,4.395,6.09,5.382
			c-1.667,0.132-2.77,0.197-3.308,0.197c-1.142,0-2.15-0.335-3.028-1.003c-1.372-1.044-3.319-3.364-5.843-6.963
			c-0.967-1.382-1.921-2.857-2.864-4.427c3.972-0.692,5.958-2.396,5.958-5.119c0-1.174-0.434-2.14-1.3-2.896
			c-0.802-0.692-1.799-1.038-2.995-1.038C154.921,19.711,154.083,19.805,153.107,19.991z"/>
		<path fill="#FFFFFF" stroke="#FFFFFF" stroke-width="0.3517" stroke-miterlimit="10" d="M185.031,17.291l-1.169,4.214
			c-0.22-0.438-0.51-0.751-0.872-0.937c-0.505-0.265-1.317-0.396-2.437-0.396c-0.031,0-1.058,0.033-3.077,0.099v16.509
			c0.012,1.295,0.171,2.217,0.478,2.764c0.317,0.551,0.784,1.023,1.4,1.417h-7.028c0.623-0.328,1.047-0.789,1.267-1.383
			c0.218-0.635,0.329-1.694,0.329-3.175V20.271c-0.889-0.077-1.85-0.115-2.88-0.115c-1.449,0-2.569,0.187-3.358,0.56
			c-0.318,0.143-0.729,0.407-1.234,0.79l1.299-4.214c0.287,0.099,0.895,0.176,1.828,0.231h13.364
			C184.039,17.467,184.733,17.39,185.031,17.291z"/>
		<path fill="#FFFFFF" stroke="#FFFFFF" stroke-width="0.3517" stroke-miterlimit="10" d="M204.298,29.686h-12.839v6.716
			c0,1.592,0.128,2.705,0.379,3.34c0.229,0.495,0.637,0.901,1.218,1.218h-6.764c0.624-0.328,1.053-0.789,1.284-1.383
			c0.208-0.646,0.312-1.706,0.312-3.175V22.081c0-1.59-0.127-2.704-0.378-3.341c-0.231-0.492-0.635-0.899-1.218-1.218h6.764
			c-0.637,0.341-1.065,0.803-1.282,1.383c-0.21,0.649-0.314,1.707-0.314,3.176v4.873h12.839v-4.873c0-1.611-0.132-2.725-0.395-3.341
			c-0.231-0.503-0.631-0.91-1.201-1.218h6.746c-0.625,0.33-1.046,0.792-1.266,1.383c-0.221,0.649-0.331,1.707-0.331,3.176v14.321
			c0,1.614,0.132,2.728,0.396,3.34c0.22,0.505,0.619,0.91,1.2,1.218h-6.746c0.614-0.328,1.037-0.789,1.265-1.383
			c0.221-0.635,0.331-1.694,0.331-3.175V29.686z"/>
		<path fill="#FFFFFF" stroke="#FFFFFF" stroke-width="0.3517" stroke-miterlimit="10" d="M221.138,40.959
			c0.416-0.362,0.695-0.614,0.836-0.756c0.517-0.528,0.77-1.845,0.758-3.951V22.081c0-1.59-0.126-2.704-0.378-3.341
			c-0.232-0.492-0.636-0.899-1.216-1.218h3.57c0.525,0,1.317-0.005,2.369-0.017c1.076-0.022,1.991-0.033,2.75-0.033
			c2.314,0,4.223,0.285,5.727,0.857c2.414,0.932,4.29,2.371,5.631,4.311c1.26,1.856,1.893,3.978,1.893,6.37
			c0,3.633-1.344,6.629-4.034,8.988c-1.767,1.545-3.779,2.442-6.041,2.684c-1.625,0.185-3.659,0.278-6.105,0.278H221.138z
			 M226.304,38.047c0.889,0.175,1.772,0.262,2.648,0.262c2.843,0,5.033-0.524,6.567-1.579c2.438-1.678,3.655-4.129,3.655-7.357
			c0-1.733-0.378-3.352-1.137-4.854c-1.545-3.095-4.371-4.642-8.475-4.642c-0.978,0-2.064,0.13-3.26,0.394V38.047z"/>
		<path fill="#FFFFFF" stroke="#FFFFFF" stroke-width="0.3517" stroke-miterlimit="10" d="M258.191,32.138h-8.97l-2.04,5.432
			c-0.274,0.746-0.412,1.35-0.412,1.811c0,0.581,0.429,1.109,1.284,1.579h-6.535c0.628-0.383,1.142-0.806,1.548-1.267
			c0.363-0.438,0.643-0.872,0.84-1.301c0.164-0.339,0.473-1.081,0.923-2.221l6.253-15.636c0.275-0.671,0.413-1.207,0.413-1.613
			c0-0.583-0.364-1.048-1.086-1.4h5.692l7.457,18.649c0.569,1.405,1.003,2.32,1.301,2.749c0.602,0.878,1.316,1.559,2.14,2.04h-7.376
			c0.407-0.229,0.677-0.393,0.808-0.492c0.32-0.252,0.478-0.555,0.478-0.907c0-0.252-0.209-0.916-0.625-1.991L258.191,32.138z
			 M257.271,29.834l-3.588-9.299l-3.621,9.299H257.271z"/>
		<path fill="#FFFFFF" stroke="#FFFFFF" stroke-width="0.3517" stroke-miterlimit="10" d="M274.894,22.081v14.321
			c0,1.592,0.126,2.705,0.379,3.34c0.231,0.495,0.635,0.901,1.218,1.218h-6.766c0.626-0.328,1.055-0.789,1.285-1.383
			c0.208-0.646,0.312-1.706,0.312-3.175V22.081c0-1.59-0.126-2.704-0.38-3.341c-0.23-0.492-0.636-0.899-1.218-1.218h6.766
			c-0.638,0.341-1.065,0.803-1.283,1.383C274.999,19.554,274.894,20.612,274.894,22.081z M275.471,28.764l4.938-6.534
			c1.186-1.558,1.778-2.629,1.778-3.21c0-0.562-0.374-1.058-1.121-1.498h6.42l-8.197,10.517l0.709,0.954
			c2.565,3.458,4.234,5.686,5.001,6.683c1.065,1.338,1.933,2.305,2.603,2.897c0.724,0.648,1.777,1.443,3.158,2.386
			c-1.01,0.121-2.145,0.182-3.406,0.182c-1.471,0-2.645-0.423-3.523-1.267c-0.7-0.668-2.182-2.589-4.441-5.761
			C277.433,31.381,276.127,29.598,275.471,28.764z"/>
		<path fill="#FFFFFF" stroke="#FFFFFF" stroke-width="0.3517" stroke-miterlimit="10" d="M302.196,16.914
			c2.15,0,4.209,0.494,6.172,1.479c2.339,1.187,4.083,2.958,5.236,5.318c0.845,1.744,1.268,3.536,1.268,5.381
			c0,2.567-0.77,4.934-2.306,7.096c-1.372,1.931-3.193,3.368-5.464,4.311c-1.68,0.702-3.474,1.056-5.383,1.056
			c-3.084,0-5.787-0.877-8.114-2.634c-1.734-1.306-3.023-2.93-3.867-4.872c-0.659-1.492-0.989-3.056-0.989-4.691
			c0-2.347,0.644-4.543,1.927-6.583c1.219-1.952,2.956-3.451,5.218-4.493C297.836,17.368,299.936,16.914,302.196,16.914z
			 M301.686,19.482c-1.711,0-3.336,0.459-4.872,1.382c-1.405,0.856-2.463,2.084-3.177,3.687c-0.581,1.337-0.871,2.748-0.871,4.23
			c0,1.941,0.482,3.792,1.447,5.546c1.712,3.116,4.258,4.674,7.638,4.674c2.885,0,5.162-0.981,6.831-2.947
			c1.437-1.689,2.155-3.824,2.155-6.402c0-2.766-0.812-5.118-2.438-7.062C306.677,20.518,304.439,19.482,301.686,19.482z"/>
		<path fill="#FFFFFF" stroke="#FFFFFF" stroke-width="0.3517" stroke-miterlimit="10" d="M334.416,17.291l-1.17,4.214
			c-0.219-0.438-0.51-0.751-0.871-0.937c-0.506-0.265-1.316-0.396-2.436-0.396c-0.033,0-1.06,0.033-3.079,0.099v16.509
			c0.011,1.295,0.171,2.217,0.479,2.764c0.315,0.551,0.782,1.023,1.399,1.417h-7.03c0.628-0.328,1.048-0.789,1.268-1.383
			c0.221-0.635,0.33-1.694,0.33-3.175V20.271c-0.89-0.077-1.85-0.115-2.881-0.115c-1.448,0-2.567,0.187-3.356,0.56
			c-0.32,0.143-0.731,0.407-1.236,0.79l1.303-4.214c0.283,0.099,0.893,0.176,1.824,0.231h13.367
			C333.423,17.467,334.121,17.39,334.416,17.291z"/>
		<path fill="#FFFFFF" stroke="#FFFFFF" stroke-width="0.3517" stroke-miterlimit="10" d="M348.072,32.138h-8.973l-2.039,5.432
			c-0.275,0.746-0.412,1.35-0.412,1.811c0,0.581,0.426,1.109,1.281,1.579h-6.533c0.627-0.383,1.143-0.806,1.549-1.267
			c0.361-0.438,0.643-0.872,0.838-1.301c0.164-0.339,0.473-1.081,0.924-2.221l6.252-15.636c0.275-0.671,0.412-1.207,0.412-1.613
			c0-0.583-0.361-1.048-1.086-1.4h5.693l7.457,18.649c0.57,1.405,1.004,2.32,1.303,2.749c0.602,0.878,1.314,1.559,2.139,2.04h-7.375
			c0.406-0.229,0.676-0.393,0.807-0.492c0.318-0.252,0.477-0.555,0.477-0.907c0-0.252-0.207-0.916-0.625-1.991L348.072,32.138z
			 M347.148,29.834l-3.588-9.299l-3.621,9.299H347.148z"/>
	</g>
	<g>
		<path fill="#FFFFFF" d="M101.101,13.278v-0.992c-0.213,0.268-0.454,0.487-0.724,0.655c-0.62,0.379-1.322,0.569-2.104,0.569
			c-0.863,0-1.592-0.213-2.183-0.636c-0.542-0.387-0.893-0.926-1.052-1.614c-0.062-0.284-0.093-0.753-0.093-1.409V5.688
			c0-0.645-0.053-1.092-0.158-1.343c-0.089-0.203-0.25-0.366-0.484-0.49h2.713c-0.25,0.133-0.423,0.317-0.515,0.556
			c-0.085,0.26-0.127,0.687-0.127,1.277v4.164c0,0.501,0.039,0.873,0.114,1.11c0.145,0.473,0.425,0.843,0.839,1.113
			c0.396,0.255,0.856,0.382,1.377,0.382c0.622,0,1.164-0.181,1.628-0.542c0.309-0.243,0.519-0.517,0.629-0.821
			c0.065-0.185,0.099-0.437,0.099-0.755V5.688c0-0.645-0.053-1.092-0.158-1.343c-0.089-0.203-0.25-0.366-0.482-0.49h2.712
			c-0.251,0.133-0.423,0.317-0.515,0.556c-0.086,0.26-0.128,0.687-0.128,1.277v5.757c0,0.645,0.055,1.091,0.159,1.344
			c0.089,0.204,0.25,0.366,0.483,0.49H101.101z"/>
		<path fill="#FFFFFF" d="M120.793,5.873v5.724c0.004,0.516,0.068,0.887,0.191,1.113c0.128,0.22,0.317,0.41,0.563,0.569h-2.556
			c0.267-0.169,0.465-0.379,0.597-0.636c0.102-0.206,0.154-0.555,0.158-1.045V5.535c-0.004-0.529-0.068-0.899-0.191-1.111
			c-0.132-0.225-0.319-0.414-0.563-0.569h2.1c0.038,0.097,0.153,0.274,0.345,0.528l5.293,6.751V5.535
			c-0.006-0.525-0.069-0.896-0.191-1.111c-0.133-0.225-0.321-0.414-0.565-0.569h2.557c-0.265,0.167-0.464,0.379-0.596,0.636
			c-0.101,0.202-0.155,0.551-0.159,1.044v8.206c-0.755-0.257-1.411-0.756-1.973-1.502L120.793,5.873z"/>
		<path fill="#FFFFFF" d="M145.601,11.444V5.688c0-0.64-0.051-1.087-0.153-1.343c-0.091-0.198-0.256-0.361-0.488-0.49h2.719
			c-0.255,0.137-0.426,0.321-0.515,0.556c-0.085,0.26-0.128,0.687-0.128,1.277v5.757c0,0.64,0.053,1.088,0.152,1.344
			c0.094,0.199,0.256,0.362,0.49,0.49h-2.719c0.251-0.133,0.424-0.318,0.516-0.556C145.558,12.461,145.601,12.036,145.601,11.444z"
			/>
		<path fill="#FFFFFF" d="M167.353,11.57l2.02-5.293c0.291-0.763,0.435-1.299,0.435-1.607c0-0.393-0.173-0.665-0.521-0.814h2.177
			l-3.831,9.839c-0.618-0.397-1.031-0.707-1.239-0.932c-0.136-0.155-0.261-0.367-0.376-0.636c-0.029-0.075-0.107-0.277-0.232-0.609
			l-1.925-5.241c-0.37-0.983-0.602-1.562-0.695-1.733c-0.158-0.278-0.344-0.508-0.555-0.688h2.083
			c-0.009,0.07-0.013,0.124-0.013,0.159c0,0.175,0.109,0.564,0.331,1.164L167.353,11.57z"/>
		<path fill="#FFFFFF" d="M187.688,8.672v3.408c0.594,0.097,1.186,0.146,1.773,0.146c0.696,0,1.293-0.09,1.792-0.272
			c0.336-0.119,0.662-0.303,0.979-0.549l-0.655,1.873h-5.967c0.25-0.133,0.424-0.321,0.517-0.562
			c0.084-0.261,0.124-0.687,0.124-1.278v-5.75c0-0.645-0.05-1.092-0.151-1.343c-0.091-0.208-0.256-0.371-0.489-0.49h4.765
			c0.212,0,0.391-0.03,0.536-0.086v1.668c-0.207-0.204-0.414-0.342-0.623-0.417c-0.264-0.098-0.638-0.146-1.124-0.146
			c-0.613,0-1.106,0.029-1.476,0.092v2.68h1.911c0.186,0,0.349-0.031,0.491-0.092V9.07c-0.102-0.142-0.224-0.238-0.359-0.292
			c-0.184-0.07-0.442-0.106-0.774-0.106H187.688z"/>
		<path fill="#FFFFFF" d="M208.036,4.847v6.597c0,0.64,0.05,1.088,0.151,1.344c0.093,0.199,0.255,0.362,0.489,0.49h-2.718
			c0.251-0.133,0.425-0.318,0.517-0.556c0.083-0.261,0.125-0.687,0.125-1.278V5.688c0-0.64-0.051-1.087-0.152-1.343
			c-0.092-0.198-0.255-0.361-0.489-0.49h2.077c0.031,0.004,0.254,0,0.669-0.013c0.241-0.01,0.442-0.014,0.601-0.014
			c0.912,0,1.62,0.186,2.124,0.556c0.301,0.221,0.538,0.506,0.709,0.854c0.157,0.317,0.237,0.643,0.237,0.973
			c0,0.473-0.176,0.929-0.528,1.37c-0.442,0.538-1.043,0.902-1.8,1.092c0.485,0.666,1.13,1.479,1.931,2.441
			c0.876,1.046,1.69,1.767,2.448,2.165c-0.671,0.052-1.11,0.079-1.329,0.079c-0.457,0-0.862-0.135-1.216-0.402
			c-0.554-0.42-1.335-1.353-2.35-2.799c-0.391-0.557-0.772-1.15-1.152-1.781c1.599-0.278,2.396-0.963,2.396-2.058
			c0-0.471-0.172-0.861-0.521-1.165c-0.324-0.277-0.725-0.417-1.205-0.417C208.766,4.734,208.429,4.772,208.036,4.847z"/>
		<path fill="#FFFFFF" d="M233.94,3.934v1.628c-0.641-0.626-1.398-0.94-2.271-0.94c-0.641,0-1.141,0.161-1.503,0.482
			c-0.252,0.226-0.378,0.514-0.378,0.868c0,0.335,0.135,0.625,0.404,0.867c0.199,0.175,0.423,0.33,0.67,0.461
			c0.29,0.151,0.64,0.319,1.046,0.504c1.013,0.471,1.708,0.857,2.082,1.158c0.517,0.405,0.776,0.925,0.776,1.562
			c0,0.723-0.297,1.37-0.888,1.938c-0.732,0.702-1.727,1.053-2.985,1.053c-0.847,0-1.693-0.146-2.534-0.438l-0.423-1.786
			c0.936,0.764,1.98,1.145,3.137,1.145c0.64,0,1.17-0.159,1.593-0.476c0.362-0.273,0.545-0.605,0.545-0.993
			c0-0.402-0.158-0.739-0.477-1.013c-0.194-0.172-0.419-0.322-0.677-0.451c-0.32-0.163-0.704-0.348-1.149-0.555
			c-0.959-0.439-1.616-0.814-1.974-1.131c-0.492-0.447-0.74-1-0.74-1.662c0-0.44,0.127-0.86,0.383-1.257
			c0.288-0.445,0.739-0.779,1.351-0.999c0.53-0.19,1.136-0.285,1.82-0.285C232.466,3.616,233.197,3.723,233.94,3.934z"/>
		<path fill="#FFFFFF" d="M250.26,11.444V5.688c0-0.64-0.052-1.087-0.153-1.343c-0.09-0.198-0.255-0.361-0.486-0.49h2.719
			c-0.255,0.137-0.429,0.321-0.517,0.556c-0.085,0.26-0.127,0.687-0.127,1.277v5.757c0,0.64,0.05,1.088,0.153,1.344
			c0.094,0.199,0.255,0.362,0.49,0.49h-2.719c0.251-0.133,0.423-0.318,0.514-0.556C250.218,12.461,250.26,12.036,250.26,11.444z"/>
		<path fill="#FFFFFF" d="M271.156,11.596c0.006,0.521,0.068,0.892,0.193,1.113c0.128,0.22,0.312,0.41,0.562,0.569h-2.827
			c0.251-0.133,0.422-0.318,0.511-0.556c0.088-0.256,0.13-0.682,0.13-1.278V4.96c-0.354-0.032-0.741-0.047-1.155-0.047
			c-0.585,0-1.033,0.076-1.354,0.226c-0.125,0.056-0.291,0.163-0.492,0.316l0.52-1.693c0.116,0.041,0.362,0.07,0.736,0.093h5.371
			c0.442-0.023,0.723-0.052,0.844-0.093l-0.469,1.693c-0.09-0.175-0.208-0.302-0.353-0.376c-0.203-0.106-0.529-0.16-0.98-0.16
			c-0.012,0-0.424,0.014-1.237,0.042"/>
		<path fill="#FFFFFF" d="M293.247,9.148v2.448c0.003,0.527,0.065,0.896,0.184,1.113c0.1,0.171,0.277,0.36,0.528,0.569h-2.746
			c0.245-0.172,0.406-0.357,0.477-0.556c0.084-0.266,0.125-0.691,0.125-1.278V9.148l-2.474-3.964
			c-0.265-0.423-0.478-0.717-0.642-0.88c-0.141-0.132-0.347-0.282-0.621-0.449l1.449-0.052c0.034,0,0.084,0,0.152,0
			c0.224,0,0.382,0.031,0.469,0.099c0.09,0.065,0.229,0.259,0.423,0.583l2.15,3.514l1.807-2.734
			c0.176-0.272,0.266-0.502,0.266-0.688c0-0.172-0.09-0.349-0.266-0.529c-0.073-0.08-0.16-0.143-0.258-0.191h2.483L293.247,9.148z"
			/>
		<path fill="#FFFFFF" d="M325.279,3.609c0.864,0,1.69,0.199,2.481,0.596c0.938,0.477,1.642,1.189,2.104,2.137
			c0.34,0.702,0.51,1.423,0.51,2.164c0,1.033-0.309,1.984-0.928,2.853c-0.552,0.776-1.283,1.354-2.198,1.733
			c-0.675,0.281-1.394,0.423-2.164,0.423c-1.239,0-2.326-0.354-3.263-1.06c-0.697-0.525-1.214-1.177-1.553-1.958
			c-0.264-0.601-0.396-1.229-0.396-1.885c0-0.945,0.256-1.827,0.772-2.647c0.488-0.786,1.188-1.388,2.098-1.808
			C323.527,3.793,324.369,3.609,325.279,3.609z M325.073,4.642c-0.688,0-1.342,0.187-1.958,0.556
			c-0.565,0.343-0.99,0.838-1.277,1.482c-0.234,0.538-0.351,1.106-0.351,1.701c0,0.782,0.192,1.524,0.583,2.229
			c0.687,1.253,1.712,1.88,3.07,1.88c1.158,0,2.074-0.393,2.746-1.185c0.577-0.679,0.864-1.537,0.864-2.574
			c0-1.111-0.323-2.059-0.977-2.838C327.081,5.059,326.179,4.642,325.073,4.642z"/>
		<path fill="#FFFFFF" d="M342.898,8.672v2.772c0,0.64,0.049,1.088,0.152,1.344c0.09,0.199,0.256,0.362,0.488,0.49h-2.719
			c0.25-0.133,0.424-0.318,0.516-0.556c0.084-0.261,0.125-0.687,0.125-1.278V5.688c0-0.64-0.049-1.087-0.152-1.343
			c-0.092-0.198-0.254-0.361-0.488-0.49h4.764c0.221,0,0.4-0.03,0.537-0.086v1.668c-0.207-0.2-0.416-0.338-0.623-0.417
			c-0.264-0.098-0.635-0.146-1.113-0.146c-0.613,0-1.109,0.029-1.486,0.092v2.68h1.912c0.184,0,0.35-0.031,0.488-0.092V9.07
			c-0.1-0.142-0.219-0.238-0.355-0.292c-0.191-0.07-0.449-0.106-0.775-0.106H342.898z"/>
	</g>
	<path fill="#FF671F" d="M72.125,20.125c0,0,2.676,1.52,3.769,4.653c0.549,1.819,0.262,3.553-0.337,4.81
		c-0.129,0.271-0.272,0.533-0.428,0.786c-0.663,1.079-1.558,1.973-2.394,2.597c-1.217,0.983-2.362,1.418-3.693,1.875
		c-0.72,0.249-1.348,0.387-2.271,0.704c0.3-0.71,0.9-1.542,1.361-2.102c0.26-0.315,0.551-0.601,0.828-0.899
		c0.727-0.78,1.384-1.647,1.8-2.312c0.775-1.27,1.48-2.6,1.863-4.898c0.104-0.573,0.126-1.323,0.097-1.897
		C72.658,21.616,72.125,20.125,72.125,20.125z"/>
	<path fill="#FF671F" d="M65.136,39.813c-0.6-0.646-1.392-1.658-1.852-2.515c-0.642-1.197-1.146-2.608-1.338-4.116
		c-0.17-1.34-0.087-2.774,0.292-3.957c0.812-2.552,2.983-4.08,4.274-6.401c0.524-0.969,0.89-2.074,1.003-3.194
		c0.104-1.07-0.088-2.294-0.589-3.362c-0.186-0.388-0.392-0.812-0.658-1.209c0,0,0.821,0.36,1.642,1.06
		c0.356,0.295,0.738,0.657,1.12,1.097c0.169,0.194,1.703,2.072,2.188,4.627c0.115,0.64,0.181,1.238,0.206,1.796
		c0.052,2.688-0.923,4.904-1.73,6.063c-0.354,0.508-0.718,1.007-1.133,1.467c-0.774,0.857-1.638,1.61-2.836,3.587
		c-0.133,0.234-0.328,0.638-0.397,0.854c-0.152,0.48-0.3,0.931-0.367,1.335c-0.138,0.835-0.076,1.5-0.019,1.982
		C65.011,39.504,65.136,39.812,65.136,39.813z"/>
	<path fill="#009A44" d="M87.047,21.42c0,5.67-2.096,10.344-6.297,14.031c-2.758,2.413-5.898,3.809-9.427,4.186
		c-1.064,0.125-2.375,0.146-3.32,0.139l-1.336-0.029c0,0-0.299-0.458-0.312-1.534c0.035-1.139,0.303-1.742,0.303-1.742
		c0.228,0.029,0.527,0.021,0.546,0.02c1.813-0.084,5.893-1.54,8.052-3.018c3.802-2.621,5.701-6.456,5.701-11.492
		c0-2.703-0.588-5.228-1.771-7.579C76.767,9.57,72.358,7.156,65.95,7.156c-1.522,0-4.477,0.344-6.35,0.753l-0.005,33.914
		c-2.929-0.993-5.479-2.934-7.66-5.831L33.336,12.354v20.524c0,2.503,0.207,4.238,0.621,5.22c0.338,0.786,0.964,1.422,1.877,1.898
		h-7.894V36.14c-0.823,1.047-1.756,1.894-2.802,2.546c-2.413,1.475-5.14,2.208-8.174,2.208c-3.358,0-6.187-0.817-8.478-2.46
		c-2.105-1.512-3.469-3.604-4.091-6.271c-0.237-1.099-0.354-2.923-0.354-5.475V10.518c0-2.498-0.207-4.238-0.615-5.214
		C3.083,4.513,2.456,3.883,1.548,3.405h10.537c-0.978,0.509-1.646,1.231-2.006,2.153c-0.324,1.013-0.488,2.669-0.488,4.96v16.169
		c0,1.953,0.144,3.391,0.435,4.318c0.567,1.831,1.655,3.273,3.263,4.313c1.544,0.998,3.326,1.491,5.348,1.491
		c2.419,0,4.524-0.699,6.323-2.106c1.198-0.944,2.011-2.006,2.439-3.188c0.261-0.716,0.388-1.692,0.388-2.929V10.518
		c0-2.498-0.206-4.238-0.615-5.214c-0.345-0.791-0.97-1.421-1.878-1.899l8.345,0.026c0.153,0.377,0.6,1.062,1.336,2.054
		l19.07,24.367V9.973c-0.021-2.036-0.245-4.199-0.775-5.014c-0.55-0.842-0.755-0.929-1.7-1.528c0,0,13.611-0.026,14.79-0.026
		c3.618,0,6.6,0.44,8.943,1.331c3.771,1.459,6.7,3.703,8.791,6.738C86.066,14.369,87.047,17.686,87.047,21.42z"/>
</g>
</svg>
