<svg xmlns="http://www.w3.org/2000/svg" xml:space="preserve" viewBox="0 0 363.6 45.516"><path fill="#FFF" d="M360.624 38.212c.795 0 1.428.646 1.428 1.453 0 .82-.633 1.46-1.434 1.46a1.44 1.44 0 0 1-1.439-1.46c0-.808.645-1.453 1.439-1.453h.006zm-.006.226c-.639 0-1.162.549-1.162 1.227 0 .691.523 1.234 1.168 1.234.646.006 1.164-.542 1.164-1.228 0-.685-.518-1.233-1.164-1.233h-.006zm-.272 2.073h-.258V38.89c.135-.02.266-.038.459-.038.244 0 .406.051.504.123.096.071.148.181.148.336 0 .212-.143.342-.316.394v.013c.141.026.238.155.271.394.037.252.076.349.104.401h-.271c-.039-.052-.078-.2-.111-.414-.039-.207-.141-.284-.348-.284h-.182v.696zm0-.898h.188c.213 0 .395-.078.395-.278 0-.142-.104-.284-.395-.284-.084 0-.143.006-.188.013v.549z"/><path fill="#009A44" d="M81.041 38.212c.795 0 1.428.646 1.428 1.453 0 .82-.633 1.46-1.434 1.46a1.44 1.44 0 0 1-1.439-1.46c0-.808.645-1.453 1.439-1.453h.006zm-.006.226c-.639 0-1.162.549-1.162 1.227 0 .691.523 1.234 1.168 1.234.646.006 1.164-.542 1.164-1.228 0-.685-.518-1.233-1.164-1.233h-.006zm-.272 2.073h-.258V38.89c.135-.02.266-.038.459-.038.244 0 .406.051.504.123.096.071.148.181.148.336 0 .212-.143.342-.316.394v.013c.141.026.238.155.271.394.037.252.076.349.104.401h-.271c-.039-.052-.078-.2-.111-.414-.039-.207-.141-.284-.348-.284h-.182v.696zm0-.898h.188c.213 0 .395-.078.395-.278 0-.142-.104-.284-.395-.284-.084 0-.143.006-.188.013v.549z"/><g fill="#FFF" stroke="#FFF" stroke-width=".352" stroke-miterlimit="10"><path d="M97.52 22.542v14.237c.011 1.284.17 2.207.477 2.764.318.551.785 1.023 1.399 1.417h-6.354c.659-.415 1.153-.943 1.482-1.579.252-.516.384-1.383.395-2.601V21.703c-.011-1.316-.171-2.238-.477-2.766-.33-.559-.796-1.031-1.4-1.415h5.219c.098.242.384.68.855 1.316l13.167 16.789V21.703c-.011-1.306-.169-2.226-.478-2.766-.329-.559-.796-1.031-1.398-1.415h6.354c-.658.417-1.151.944-1.482 1.581-.252.504-.384 1.371-.395 2.6v20.409c-1.876-.635-3.512-1.881-4.904-3.736L97.52 22.542zM132.44 16.914c2.152 0 4.208.494 6.172 1.479 2.338 1.187 4.082 2.958 5.233 5.318.846 1.744 1.269 3.536 1.269 5.381 0 2.567-.769 4.934-2.304 7.096-1.372 1.931-3.193 3.368-5.465 4.311-1.679.702-3.473 1.056-5.383 1.056-3.084 0-5.788-.877-8.113-2.634-1.734-1.306-3.023-2.93-3.868-4.872a11.503 11.503 0 0 1-.988-4.691c0-2.347.643-4.543 1.926-6.583 1.219-1.952 2.957-3.451 5.218-4.493 1.941-.914 4.043-1.368 6.303-1.368zm-.511 2.568c-1.71 0-3.335.459-4.871 1.382-1.404.856-2.463 2.084-3.176 3.687a10.488 10.488 0 0 0-.873 4.23c0 1.941.482 3.792 1.448 5.546 1.713 3.116 4.257 4.674 7.637 4.674 2.887 0 5.162-.981 6.831-2.947 1.438-1.689 2.155-3.824 2.155-6.402 0-2.766-.811-5.118-2.436-7.062-1.721-2.072-3.96-3.108-6.715-3.108zM153.107 19.991v16.411c0 1.592.126 2.705.379 3.34.229.495.636.901 1.219 1.218h-6.766c.624-.328 1.053-.789 1.282-1.383.209-.646.315-1.706.315-3.175V22.081c0-1.59-.127-2.704-.381-3.341-.229-.492-.635-.899-1.217-1.218h5.168c.077.011.63 0 1.662-.033a42.56 42.56 0 0 1 1.497-.033c2.271 0 4.034.462 5.284 1.382a5.773 5.773 0 0 1 1.761 2.123c.395.791.593 1.598.593 2.421 0 1.173-.438 2.309-1.316 3.407-1.099 1.337-2.59 2.243-4.478 2.714 1.207 1.658 2.809 3.681 4.806 6.073 2.173 2.602 4.203 4.395 6.09 5.382-1.667.132-2.77.197-3.308.197-1.142 0-2.15-.335-3.028-1.003-1.372-1.044-3.319-3.364-5.843-6.963a75.782 75.782 0 0 1-2.864-4.427c3.972-.692 5.958-2.396 5.958-5.119 0-1.174-.434-2.14-1.3-2.896-.802-.692-1.799-1.038-2.995-1.038-.704.002-1.542.096-2.518.282zM185.031 17.291l-1.169 4.214c-.22-.438-.51-.751-.872-.937-.505-.265-1.317-.396-2.437-.396-.031 0-1.058.033-3.077.099V36.78c.012 1.295.171 2.217.478 2.764.317.551.784 1.023 1.4 1.417h-7.028c.623-.328 1.047-.789 1.267-1.383.218-.635.329-1.694.329-3.175V20.271a33.512 33.512 0 0 0-2.88-.115c-1.449 0-2.569.187-3.358.56-.318.143-.729.407-1.234.79l1.299-4.214c.287.099.895.176 1.828.231h13.364c1.098-.056 1.792-.133 2.09-.232zM204.298 29.686h-12.839v6.716c0 1.592.128 2.705.379 3.34.229.495.637.901 1.218 1.218h-6.764c.624-.328 1.053-.789 1.284-1.383.208-.646.312-1.706.312-3.175V22.081c0-1.59-.127-2.704-.378-3.341-.231-.492-.635-.899-1.218-1.218h6.764c-.637.341-1.065.803-1.282 1.383-.21.649-.314 1.707-.314 3.176v4.873h12.839v-4.873c0-1.611-.132-2.725-.395-3.341-.231-.503-.631-.91-1.201-1.218h6.746c-.625.33-1.046.792-1.266 1.383-.221.649-.331 1.707-.331 3.176v14.321c0 1.614.132 2.728.396 3.34.22.505.619.91 1.2 1.218h-6.746c.614-.328 1.037-.789 1.265-1.383.221-.635.331-1.694.331-3.175v-6.716zM221.138 40.959c.416-.362.695-.614.836-.756.517-.528.77-1.845.758-3.951V22.081c0-1.59-.126-2.704-.378-3.341-.232-.492-.636-.899-1.216-1.218h3.57c.525 0 1.317-.005 2.369-.017 1.076-.022 1.991-.033 2.75-.033 2.314 0 4.223.285 5.727.857 2.414.932 4.29 2.371 5.631 4.311 1.26 1.856 1.893 3.978 1.893 6.37 0 3.633-1.344 6.629-4.034 8.988-1.767 1.545-3.779 2.442-6.041 2.684-1.625.185-3.659.278-6.105.278h-5.76zm5.166-2.912c.889.175 1.772.262 2.648.262 2.843 0 5.033-.524 6.567-1.579 2.438-1.678 3.655-4.129 3.655-7.357 0-1.733-.378-3.352-1.137-4.854-1.545-3.095-4.371-4.642-8.475-4.642-.978 0-2.064.13-3.26.394v17.776zM258.191 32.138h-8.97l-2.04 5.432c-.274.746-.412 1.35-.412 1.811 0 .581.429 1.109 1.284 1.579h-6.535a6.661 6.661 0 0 0 1.548-1.267c.363-.438.643-.872.84-1.301.164-.339.473-1.081.923-2.221l6.253-15.636c.275-.671.413-1.207.413-1.613 0-.583-.364-1.048-1.086-1.4h5.692l7.457 18.649c.569 1.405 1.003 2.32 1.301 2.749.602.878 1.316 1.559 2.14 2.04h-7.376c.407-.229.677-.393.808-.492.32-.252.478-.555.478-.907 0-.252-.209-.916-.625-1.991l-2.093-5.432zm-.92-2.304-3.588-9.299-3.621 9.299h7.209zM274.894 22.081v14.321c0 1.592.126 2.705.379 3.34.231.495.635.901 1.218 1.218h-6.766c.626-.328 1.055-.789 1.285-1.383.208-.646.312-1.706.312-3.175V22.081c0-1.59-.126-2.704-.38-3.341-.23-.492-.636-.899-1.218-1.218h6.766c-.638.341-1.065.803-1.283 1.383-.208.649-.313 1.707-.313 3.176zm.577 6.683 4.938-6.534c1.186-1.558 1.778-2.629 1.778-3.21 0-.562-.374-1.058-1.121-1.498h6.42l-8.197 10.517.709.954c2.565 3.458 4.234 5.686 5.001 6.683 1.065 1.338 1.933 2.305 2.603 2.897.724.648 1.777 1.443 3.158 2.386-1.01.121-2.145.182-3.406.182-1.471 0-2.645-.423-3.523-1.267-.7-.668-2.182-2.589-4.441-5.761-1.957-2.732-3.263-4.515-3.919-5.349z"/><path d="M302.196 16.914c2.15 0 4.209.494 6.172 1.479 2.339 1.187 4.083 2.958 5.236 5.318.845 1.744 1.268 3.536 1.268 5.381 0 2.567-.77 4.934-2.306 7.096-1.372 1.931-3.193 3.368-5.464 4.311-1.68.702-3.474 1.056-5.383 1.056-3.084 0-5.787-.877-8.114-2.634-1.734-1.306-3.023-2.93-3.867-4.872a11.488 11.488 0 0 1-.989-4.691c0-2.347.644-4.543 1.927-6.583 1.219-1.952 2.956-3.451 5.218-4.493 1.942-.914 4.042-1.368 6.302-1.368zm-.51 2.568c-1.711 0-3.336.459-4.872 1.382-1.405.856-2.463 2.084-3.177 3.687a10.503 10.503 0 0 0-.871 4.23c0 1.941.482 3.792 1.447 5.546 1.712 3.116 4.258 4.674 7.638 4.674 2.885 0 5.162-.981 6.831-2.947 1.437-1.689 2.155-3.824 2.155-6.402 0-2.766-.812-5.118-2.438-7.062-1.722-2.072-3.96-3.108-6.713-3.108zM334.416 17.291l-1.17 4.214c-.219-.438-.51-.751-.871-.937-.506-.265-1.316-.396-2.436-.396-.033 0-1.06.033-3.079.099V36.78c.011 1.295.171 2.217.479 2.764.315.551.782 1.023 1.399 1.417h-7.03c.628-.328 1.048-.789 1.268-1.383.221-.635.33-1.694.33-3.175V20.271c-.89-.077-1.85-.115-2.881-.115-1.448 0-2.567.187-3.356.56-.32.143-.731.407-1.236.79l1.303-4.214c.283.099.893.176 1.824.231h13.367c1.096-.056 1.794-.133 2.089-.232zM348.072 32.138h-8.973l-2.039 5.432c-.275.746-.412 1.35-.412 1.811 0 .581.426 1.109 1.281 1.579h-6.533c.627-.383 1.143-.806 1.549-1.267a5.94 5.94 0 0 0 .838-1.301c.164-.339.473-1.081.924-2.221l6.252-15.636c.275-.671.412-1.207.412-1.613 0-.583-.361-1.048-1.086-1.4h5.693l7.457 18.649c.57 1.405 1.004 2.32 1.303 2.749.602.878 1.314 1.559 2.139 2.04h-7.375c.406-.229.676-.393.807-.492.318-.252.477-.555.477-.907 0-.252-.207-.916-.625-1.991l-2.089-5.432zm-.924-2.304-3.588-9.299-3.621 9.299h7.209z"/></g><g fill="#FFF"><path d="M101.101 13.278v-.992a2.847 2.847 0 0 1-.724.655c-.62.379-1.322.569-2.104.569-.863 0-1.592-.213-2.183-.636-.542-.387-.893-.926-1.052-1.614-.062-.284-.093-.753-.093-1.409V5.688c0-.645-.053-1.092-.158-1.343-.089-.203-.25-.366-.484-.49h2.713c-.25.133-.423.317-.515.556-.085.26-.127.687-.127 1.277v4.164c0 .501.039.873.114 1.11.145.473.425.843.839 1.113.396.255.856.382 1.377.382.622 0 1.164-.181 1.628-.542.309-.243.519-.517.629-.821.065-.185.099-.437.099-.755V5.688c0-.645-.053-1.092-.158-1.343a1.028 1.028 0 0 0-.482-.49h2.712a1.05 1.05 0 0 0-.515.556c-.086.26-.128.687-.128 1.277v5.757c0 .645.055 1.091.159 1.344.089.204.25.366.483.49h-2.03zM120.793 5.873v5.724c.004.516.068.887.191 1.113.128.22.317.41.563.569h-2.556c.267-.169.465-.379.597-.636.102-.206.154-.555.158-1.045V5.535c-.004-.529-.068-.899-.191-1.111a1.68 1.68 0 0 0-.563-.569h2.1c.038.097.153.274.345.528l5.293 6.751V5.535c-.006-.525-.069-.896-.191-1.111a1.696 1.696 0 0 0-.565-.569h2.557a1.626 1.626 0 0 0-.596.636c-.101.202-.155.551-.159 1.044v8.206c-.755-.257-1.411-.756-1.973-1.502l-5.01-6.366zM145.601 11.444V5.688c0-.64-.051-1.087-.153-1.343-.091-.198-.256-.361-.488-.49h2.719c-.255.137-.426.321-.515.556-.085.26-.128.687-.128 1.277v5.757c0 .64.053 1.088.152 1.344.094.199.256.362.49.49h-2.719c.251-.133.424-.318.516-.556.083-.262.126-.687.126-1.279zM167.353 11.57l2.02-5.293c.291-.763.435-1.299.435-1.607 0-.393-.173-.665-.521-.814h2.177l-3.831 9.839c-.618-.397-1.031-.707-1.239-.932a2.387 2.387 0 0 1-.376-.636 71.606 71.606 0 0 1-.232-.609l-1.925-5.241c-.37-.983-.602-1.562-.695-1.733a2.55 2.55 0 0 0-.555-.688h2.083c-.009.07-.013.124-.013.159 0 .175.109.564.331 1.164l2.341 6.391zM187.688 8.672v3.408c.594.097 1.186.146 1.773.146.696 0 1.293-.09 1.792-.272.336-.119.662-.303.979-.549l-.655 1.873h-5.967c.25-.133.424-.321.517-.562.084-.261.124-.687.124-1.278v-5.75c0-.645-.05-1.092-.151-1.343a1.007 1.007 0 0 0-.489-.49h4.765c.212 0 .391-.03.536-.086v1.668a1.742 1.742 0 0 0-.623-.417c-.264-.098-.638-.146-1.124-.146-.613 0-1.106.029-1.476.092v2.68h1.911c.186 0 .349-.031.491-.092V9.07a.816.816 0 0 0-.359-.292c-.184-.07-.442-.106-.774-.106h-1.27zM208.036 4.847v6.597c0 .64.05 1.088.151 1.344.093.199.255.362.489.49h-2.718c.251-.133.425-.318.517-.556.083-.261.125-.687.125-1.278V5.688c0-.64-.051-1.087-.152-1.343-.092-.198-.255-.361-.489-.49h2.077c.031.004.254 0 .669-.013.241-.01.442-.014.601-.014.912 0 1.62.186 2.124.556a2.3 2.3 0 0 1 .709.854c.157.317.237.643.237.973 0 .473-.176.929-.528 1.37-.442.538-1.043.902-1.8 1.092.485.666 1.13 1.479 1.931 2.441.876 1.046 1.69 1.767 2.448 2.165-.671.052-1.11.079-1.329.079-.457 0-.862-.135-1.216-.402-.554-.42-1.335-1.353-2.35-2.799a30.339 30.339 0 0 1-1.152-1.781c1.599-.278 2.396-.963 2.396-2.058 0-.471-.172-.861-.521-1.165-.324-.277-.725-.417-1.205-.417a5.335 5.335 0 0 0-1.014.111zM233.94 3.934v1.628c-.641-.626-1.398-.94-2.271-.94-.641 0-1.141.161-1.503.482a1.112 1.112 0 0 0-.378.868c0 .335.135.625.404.867.199.175.423.33.67.461.29.151.64.319 1.046.504 1.013.471 1.708.857 2.082 1.158.517.405.776.925.776 1.562 0 .723-.297 1.37-.888 1.938-.732.702-1.727 1.053-2.985 1.053a7.687 7.687 0 0 1-2.534-.438l-.423-1.786c.936.764 1.98 1.145 3.137 1.145.64 0 1.17-.159 1.593-.476.362-.273.545-.605.545-.993 0-.402-.158-.739-.477-1.013a3.106 3.106 0 0 0-.677-.451c-.32-.163-.704-.348-1.149-.555-.959-.439-1.616-.814-1.974-1.131-.492-.447-.74-1-.74-1.662 0-.44.127-.86.383-1.257.288-.445.739-.779 1.351-.999.53-.19 1.136-.285 1.82-.285a8.085 8.085 0 0 1 2.192.32zM250.26 11.444V5.688c0-.64-.052-1.087-.153-1.343-.09-.198-.255-.361-.486-.49h2.719c-.255.137-.429.321-.517.556-.085.26-.127.687-.127 1.277v5.757c0 .64.05 1.088.153 1.344.094.199.255.362.49.49h-2.719c.251-.133.423-.318.514-.556.084-.262.126-.687.126-1.279zM271.156 11.596c.006.521.068.892.193 1.113.128.22.312.41.562.569h-2.827c.251-.133.422-.318.511-.556.088-.256.13-.682.13-1.278V4.96a12.93 12.93 0 0 0-1.155-.047c-.585 0-1.033.076-1.354.226a2.756 2.756 0 0 0-.492.316l.52-1.693c.116.041.362.07.736.093h5.371c.442-.023.723-.052.844-.093l-.469 1.693a.83.83 0 0 0-.353-.376c-.203-.106-.529-.16-.98-.16l-1.237.042M293.247 9.148v2.448c.003.527.065.896.184 1.113.1.171.277.36.528.569h-2.746c.245-.172.406-.357.477-.556.084-.266.125-.691.125-1.278V9.148l-2.474-3.964c-.265-.423-.478-.717-.642-.88a3.897 3.897 0 0 0-.621-.449l1.449-.052h.152c.224 0 .382.031.469.099.09.065.229.259.423.583l2.15 3.514 1.807-2.734c.176-.272.266-.502.266-.688 0-.172-.09-.349-.266-.529a.854.854 0 0 0-.258-.191h2.483l-3.506 5.291zM325.279 3.609c.864 0 1.69.199 2.481.596a4.602 4.602 0 0 1 2.104 2.137c.34.702.51 1.423.51 2.164 0 1.033-.309 1.984-.928 2.853a4.968 4.968 0 0 1-2.198 1.733 5.566 5.566 0 0 1-2.164.423c-1.239 0-2.326-.354-3.263-1.06a4.818 4.818 0 0 1-1.553-1.958 4.637 4.637 0 0 1-.396-1.885c0-.945.256-1.827.772-2.647.488-.786 1.188-1.388 2.098-1.808a5.946 5.946 0 0 1 2.537-.548zm-.206 1.033c-.688 0-1.342.187-1.958.556-.565.343-.99.838-1.277 1.482a4.223 4.223 0 0 0-.351 1.701c0 .782.192 1.524.583 2.229.687 1.253 1.712 1.88 3.07 1.88 1.158 0 2.074-.393 2.746-1.185.577-.679.864-1.537.864-2.574 0-1.111-.323-2.059-.977-2.838-.692-.834-1.594-1.251-2.7-1.251zM342.898 8.672v2.772c0 .64.049 1.088.152 1.344.09.199.256.362.488.49h-2.719c.25-.133.424-.318.516-.556.084-.261.125-.687.125-1.278V5.688c0-.64-.049-1.087-.152-1.343-.092-.198-.254-.361-.488-.49h4.764c.221 0 .4-.03.537-.086v1.668a1.874 1.874 0 0 0-.623-.417c-.264-.098-.635-.146-1.113-.146-.613 0-1.109.029-1.486.092v2.68h1.912c.184 0 .35-.031.488-.092V9.07a.79.79 0 0 0-.355-.292c-.191-.07-.449-.106-.775-.106h-1.271z"/></g><path fill="#FF671F" d="M72.125 20.125s2.676 1.52 3.769 4.653a6.73 6.73 0 0 1-.337 4.81 8.267 8.267 0 0 1-.428.786 9.609 9.609 0 0 1-2.394 2.597c-1.217.983-2.362 1.418-3.693 1.875-.72.249-1.348.387-2.271.704.3-.71.9-1.542 1.361-2.102.26-.315.551-.601.828-.899a16.324 16.324 0 0 0 1.8-2.312c.775-1.27 1.48-2.6 1.863-4.898.104-.573.126-1.323.097-1.897a12.205 12.205 0 0 0-.595-3.317z"/><path fill="#FF671F" d="M65.136 39.813c-.6-.646-1.392-1.658-1.852-2.515a12.003 12.003 0 0 1-1.338-4.116c-.17-1.34-.087-2.774.292-3.957.812-2.552 2.983-4.08 4.274-6.401a8.624 8.624 0 0 0 1.003-3.194 6.621 6.621 0 0 0-.589-3.362c-.186-.388-.392-.812-.658-1.209 0 0 .821.36 1.642 1.06.356.295.738.657 1.12 1.097.169.194 1.703 2.072 2.188 4.627a13.6 13.6 0 0 1 .206 1.796c.052 2.688-.923 4.904-1.73 6.063a14.77 14.77 0 0 1-1.133 1.467c-.774.857-1.638 1.61-2.836 3.587a5.863 5.863 0 0 0-.397.854c-.152.48-.3.931-.367 1.335-.138.835-.076 1.5-.019 1.982.069.577.194.885.194.886z"/><path fill="#009A44" d="M87.047 21.42c0 5.67-2.096 10.344-6.297 14.031-2.758 2.413-5.898 3.809-9.427 4.186-1.064.125-2.375.146-3.32.139l-1.336-.029s-.299-.458-.312-1.534c.035-1.139.303-1.742.303-1.742.228.029.527.021.546.02 1.813-.084 5.893-1.54 8.052-3.018 3.802-2.621 5.701-6.456 5.701-11.492 0-2.703-.588-5.228-1.771-7.579-2.419-4.832-6.828-7.246-13.236-7.246-1.522 0-4.477.344-6.35.753l-.005 33.914c-2.929-.993-5.479-2.934-7.66-5.831L33.336 12.354v20.524c0 2.503.207 4.238.621 5.22.338.786.964 1.422 1.877 1.898H27.94V36.14c-.823 1.047-1.756 1.894-2.802 2.546-2.413 1.475-5.14 2.208-8.174 2.208-3.358 0-6.187-.817-8.478-2.46-2.105-1.512-3.469-3.604-4.091-6.271-.237-1.099-.354-2.923-.354-5.475v-16.17c0-2.498-.207-4.238-.615-5.214-.343-.791-.97-1.421-1.878-1.899h10.537c-.978.509-1.646 1.231-2.006 2.153-.324 1.013-.488 2.669-.488 4.96v16.169c0 1.953.144 3.391.435 4.318.567 1.831 1.655 3.273 3.263 4.313 1.544.998 3.326 1.491 5.348 1.491 2.419 0 4.524-.699 6.323-2.106 1.198-.944 2.011-2.006 2.439-3.188.261-.716.388-1.692.388-2.929V10.518c0-2.498-.206-4.238-.615-5.214-.345-.791-.97-1.421-1.878-1.899l8.345.026c.153.377.6 1.062 1.336 2.054l19.07 24.367V9.973c-.021-2.036-.245-4.199-.775-5.014-.55-.842-.755-.929-1.7-1.528 0 0 13.611-.026 14.79-.026 3.618 0 6.6.44 8.943 1.331 3.771 1.459 6.7 3.703 8.791 6.738 1.972 2.895 2.953 6.212 2.953 9.946z"/></svg>
