<svg fill="#009a44" xmlns="http://www.w3.org/2000/svg" viewBox="0 0 537.8 44.8"><path d="M249.8 44.8 281.2 0h6.7l-31.3 44.8zm-230.6 0L50.6 0h6.7L25.9 44.8zm115.3 0L165.9 0h6.7l-31.4 44.8zm76.9 0L242.8 0h6.7l-31.4 44.8zM96 44.8 127.4 0h6.7l-31.4 44.8zm77.1 0L204.5 0h6.7l-31.4 44.8zm-115.4 0L89.1 0h6.7L64.4 44.8zm172.9 0L262 0h6.7l-31.4 44.8zM0 44.8 31.4 0h6.7L6.7 44.8zm115.2 0L146.6 0h6.8L122 44.8zm76.9 0L223.5 0h6.8l-31.4 44.8zm-115.3 0L108.2 0h6.7L83.5 44.8zm77 0L185.2 0h6.8l-31.4 44.8zm-115.3 0L69.9 0h6.7L45.2 44.8zm461.1 0L531 0h6.8l-31.4 44.8zm-230.6 0L300.4 0h6.7l-31.3 44.8zm115.3 0L415.7 0h6.7L391 44.8zm76.9 0L492.6 0h6.7l-31.4 44.8zm-115.4 0L377.2 0h6.7l-31.3 44.8zm77.1 0L454.3 0h6.7l-31.4 44.8zm-115.4 0L338.9 0h6.7l-31.3 44.8zm172.9 0L511.8 0h6.7l-31.3 44.8zm-115.3 0L396.5 0h6.7l-31.4 44.8zm76.9 0L473.4 0h6.7l-31.4 44.8zm-115.4 0L358 0h6.7l-31.4 44.8zm77.1 0L435.1 0h6.7l-31.4 44.8zm-115.4 0L319.7 0h6.7L295 44.8z"/></svg>
