<svg fill="#009a44" xmlns="http://www.w3.org/2000/svg" viewBox="0 0 537.8 44.8"><path d="M287.9 44.8 256.5 0h-6.7l31.4 44.8zm230.6 0L487.2 0h-6.8l31.4 44.8zm-115.2 0L371.9 0h-6.7l31.4 44.8zm-76.9 0L295 0h-6.7l31.4 44.8zm115.4 0L410.4 0h-6.8L435 44.8zm-77.1 0L333.3 0h-6.7L358 44.8zm115.4 0L448.7 0h-6.8l31.4 44.8zm-173 0L275.8 0H269l31.4 44.8zm230.7 0L506.4 0h-6.8L531 44.8zm-115.3 0L391.1 0h-6.7l31.4 44.8zm-76.9 0L314.2 0h-6.7l31.4 44.8zm115.4 0L429.6 0h-6.7l31.3 44.8zm-77.1 0L352.5 0h-6.7l31.4 44.8zm115.4 0L467.9 0h-6.7l31.3 44.8zm-461.2 0L6.7 0H0l31.4 44.8zm230.6 0L237.3 0h-6.7L262 44.8zm-115.2 0L122.1 0h-6.7l31.3 44.8zm-76.9 0L45.2 0h-6.7l31.3 44.8zm115.3 0L160.5 0h-6.7l31.4 44.8zm-77 0L83.5 0h-6.7l31.3 44.8zm115.3 0L198.8 0h-6.7l31.4 44.8zm-172.9 0L25.9 0h-6.7l31.4 44.8zm115.4 0L141.3 0h-6.7L166 44.8zm-76.9 0L64.4 0h-6.7l31.4 44.8zm115.3 0L179.8 0H173l31.4 44.8zm-77 0L102.7 0H96l31.4 44.8zm115.3 0L218.1 0h-6.8l31.4 44.8z"/></svg>
