<?xml version="1.0" encoding="utf-8"?>
<!-- Generator: Adobe Illustrator 16.0.0, SVG Export Plug-In . SVG Version: 6.00 Build 0)  -->
<!DOCTYPE svg PUBLIC "-//W3C//DTD SVG 1.1//EN" "http://www.w3.org/Graphics/SVG/1.1/DTD/svg11.dtd">
<svg version="1.1" id="Layer_1" xmlns="http://www.w3.org/2000/svg" xmlns:xlink="http://www.w3.org/1999/xlink" x="0px" y="0px"
	 width="226.8px" height="138.733px" viewBox="0 0 226.8 138.733" enable-background="new 0 0 226.8 138.733" xml:space="preserve">
<g>
	<path fill="#FF671F" d="M176.493,45.957c0,0,6.486,3.683,9.135,11.28c1.331,4.408,0.637,8.612-0.815,11.659
		c-0.312,0.656-0.66,1.293-1.037,1.906c-1.607,2.615-3.775,4.782-5.804,6.294c-2.949,2.384-5.726,3.438-8.951,4.545
		c-1.745,0.603-3.269,0.94-5.507,1.707c0.726-1.722,2.184-3.738,3.301-5.096c0.627-0.763,1.334-1.458,2.008-2.179
		c1.76-1.892,3.354-3.994,4.362-5.605c1.88-3.08,3.587-6.302,4.517-11.875c0.254-1.389,0.305-3.208,0.234-4.599
		C177.784,49.571,176.493,45.957,176.493,45.957z"/>
	<path fill="#FF671F" d="M159.548,93.685c-1.453-1.565-3.372-4.019-4.488-6.096c-1.555-2.903-2.778-6.323-3.241-9.978
		c-0.413-3.25-0.212-6.724,0.708-9.591c1.967-6.187,7.233-9.892,10.361-15.52c1.27-2.348,2.156-5.026,2.431-7.744
		c0.253-2.594-0.214-5.56-1.427-8.151c-0.451-0.94-0.951-1.966-1.596-2.93c0,0,1.989,0.872,3.979,2.57
		c0.863,0.716,1.789,1.593,2.716,2.659c0.41,0.472,4.127,5.024,5.301,11.217c0.279,1.553,0.438,3.002,0.499,4.354
		c0.128,6.517-2.235,11.89-4.192,14.7c-0.858,1.231-1.739,2.438-2.748,3.556c-1.877,2.077-3.971,3.901-6.875,8.694
		c-0.321,0.568-0.794,1.546-0.962,2.071c-0.37,1.164-0.729,2.256-0.889,3.237c-0.335,2.026-0.187,3.636-0.046,4.806
		C159.247,92.937,159.548,93.682,159.548,93.685z"/>
	<path fill="#009A44" d="M212.667,49.095c0,13.747-5.08,25.077-15.265,34.015c-6.687,5.85-14.299,9.234-22.852,10.148
		c-2.581,0.304-5.758,0.351-8.052,0.334l-3.238-0.071c0,0-0.723-1.11-0.756-3.716c0.084-2.761,0.734-4.223,0.734-4.223
		c0.553,0.07,1.276,0.051,1.322,0.049c4.396-0.206,14.284-3.733,19.518-7.316c9.218-6.354,13.822-15.651,13.822-27.86
		c0-6.554-1.424-12.674-4.294-18.372c-5.862-11.713-16.55-17.565-32.085-17.565c-3.69,0-10.853,0.834-15.394,1.825l-0.012,82.215
		c-7.099-2.408-13.284-7.113-18.571-14.135L82.459,27.119v49.754c0,6.069,0.502,10.275,1.506,12.655
		c0.821,1.906,2.338,3.447,4.551,4.604H69.38v-9.351c-1.995,2.537-4.257,4.59-6.792,6.172c-5.851,3.573-12.46,5.351-19.816,5.351
		c-8.14,0-14.996-1.981-20.549-5.964c-5.105-3.666-8.41-8.738-9.917-15.203c-0.576-2.663-0.861-7.087-0.861-13.273V22.667
		c0-6.056-0.501-10.274-1.492-12.639C9.117,8.11,7.599,6.583,5.4,5.422h25.543c-2.37,1.235-3.988,2.984-4.863,5.221
		c-0.785,2.457-1.184,6.47-1.184,12.024v39.197c0,4.734,0.349,8.22,1.054,10.468c1.376,4.438,4.014,7.937,7.911,10.458
		c3.742,2.418,8.063,3.614,12.963,3.614c5.864,0,10.967-1.694,15.329-5.104c2.905-2.289,4.876-4.865,5.914-7.73
		c0.632-1.736,0.939-4.101,0.939-7.1V22.667c0-6.056-0.5-10.274-1.49-12.639c-0.837-1.918-2.353-3.445-4.554-4.606l20.229,0.063
		c0.371,0.916,1.454,2.575,3.239,4.978l46.231,59.071V21.344c-0.053-4.936-0.597-10.179-1.883-12.152
		c-1.334-2.041-1.828-2.251-4.119-3.706c0,0,32.996-0.063,35.852-0.063c8.772,0,16,1.068,21.683,3.228
		c9.143,3.538,16.241,8.976,21.31,16.334C210.289,32.004,212.667,40.043,212.667,49.095z"/>
	<g>
		<path stroke="#000000" stroke-width="0.2737" stroke-miterlimit="10" d="M14.501,118.078v11.082c0.009,1,0.132,1.718,0.371,2.152
			c0.248,0.427,0.611,0.796,1.089,1.102h-4.946c0.514-0.323,0.898-0.734,1.154-1.229c0.197-0.402,0.299-1.077,0.308-2.025v-11.736
			c-0.009-1.025-0.133-1.742-0.371-2.152c-0.257-0.436-0.62-0.803-1.09-1.102h4.062c0.077,0.188,0.3,0.529,0.667,1.024l10.25,13.069
			v-10.839c-0.009-1.017-0.132-1.733-0.372-2.152c-0.256-0.436-0.62-0.803-1.089-1.102h4.946c-0.513,0.325-0.896,0.735-1.153,1.23
			c-0.197,0.393-0.3,1.068-0.308,2.024v15.887c-1.46-0.495-2.733-1.465-3.818-2.909L14.501,118.078z"/>
		<path stroke="#000000" stroke-width="0.2737" stroke-miterlimit="10" d="M41.685,113.696c1.675,0,3.275,0.385,4.804,1.151
			c1.82,0.924,3.178,2.303,4.074,4.141c0.658,1.356,0.986,2.752,0.986,4.188c0,1.998-0.599,3.84-1.793,5.523
			c-1.067,1.503-2.485,2.622-4.254,3.355c-1.307,0.547-2.703,0.822-4.19,0.822c-2.4,0-4.505-0.683-6.315-2.05
			c-1.35-1.017-2.353-2.281-3.01-3.793c-0.513-1.16-0.77-2.378-0.77-3.652c0-1.828,0.5-3.536,1.5-5.125
			c0.948-1.52,2.3-2.685,4.061-3.497C38.288,114.049,39.924,113.696,41.685,113.696z M41.287,115.696
			c-1.332,0-2.596,0.356-3.792,1.075c-1.094,0.666-1.917,1.622-2.473,2.87c-0.453,1.041-0.68,2.14-0.68,3.293
			c0,1.511,0.375,2.95,1.128,4.317c1.333,2.425,3.313,3.64,5.945,3.64c2.247,0,4.018-0.764,5.317-2.295
			c1.119-1.315,1.678-2.977,1.678-4.983c0-2.153-0.631-3.984-1.896-5.498C45.174,116.501,43.431,115.696,41.287,115.696z"/>
		<path stroke="#000000" stroke-width="0.2737" stroke-miterlimit="10" d="M57.772,116.092v12.773c0,1.24,0.098,2.105,0.294,2.601
			c0.179,0.385,0.496,0.701,0.95,0.948h-5.267c0.486-0.256,0.82-0.614,0.999-1.077c0.163-0.502,0.245-1.327,0.245-2.472v-11.147
			c0-1.238-0.099-2.104-0.296-2.602c-0.179-0.382-0.495-0.699-0.947-0.947h4.023c0.06,0.008,0.49,0,1.293-0.026
			c0.47-0.017,0.859-0.026,1.166-0.026c1.768,0,3.14,0.36,4.114,1.076c0.581,0.429,1.037,0.979,1.37,1.652
			c0.307,0.618,0.461,1.244,0.461,1.886c0,0.913-0.342,1.797-1.025,2.652c-0.855,1.041-2.016,1.746-3.485,2.113
			c0.94,1.291,2.186,2.865,3.74,4.728c1.692,2.025,3.272,3.421,4.741,4.189c-1.298,0.103-2.156,0.154-2.575,0.154
			c-0.888,0-1.673-0.261-2.357-0.781c-1.068-0.814-2.584-2.619-4.548-5.421c-0.752-1.075-1.495-2.225-2.23-3.446
			c3.092-0.538,4.639-1.865,4.639-3.984c0-0.914-0.337-1.667-1.012-2.255c-0.624-0.539-1.401-0.808-2.332-0.808
			C59.184,115.874,58.532,115.946,57.772,116.092z"/>
		<path stroke="#000000" stroke-width="0.2737" stroke-miterlimit="10" d="M82.623,113.989l-0.909,3.28
			c-0.172-0.341-0.397-0.584-0.681-0.729c-0.392-0.206-1.024-0.309-1.896-0.309c-0.024,0-0.823,0.025-2.396,0.077v12.851
			c0.009,1.008,0.134,1.727,0.371,2.152c0.248,0.427,0.611,0.796,1.091,1.102h-5.472c0.485-0.256,0.815-0.614,0.986-1.077
			c0.17-0.494,0.257-1.319,0.257-2.472v-12.556c-0.692-0.061-1.44-0.09-2.243-0.09c-1.127,0-1.999,0.145-2.613,0.437
			c-0.249,0.109-0.568,0.315-0.961,0.613l1.011-3.28c0.223,0.078,0.697,0.138,1.424,0.18h10.402
			C81.85,114.127,82.391,114.067,82.623,113.989z"/>
		<path stroke="#000000" stroke-width="0.2737" stroke-miterlimit="10" d="M97.621,123.639h-9.992v5.227
			c0,1.24,0.098,2.105,0.293,2.601c0.179,0.385,0.496,0.701,0.948,0.948h-5.266c0.486-0.256,0.82-0.614,1-1.077
			c0.163-0.502,0.243-1.327,0.243-2.472v-11.147c0-1.238-0.099-2.104-0.295-2.602c-0.18-0.382-0.494-0.699-0.948-0.947h5.266
			c-0.495,0.265-0.829,0.625-0.998,1.076c-0.162,0.506-0.243,1.328-0.243,2.473v3.793h9.992v-3.793c0-1.256-0.103-2.122-0.307-2.602
			c-0.18-0.391-0.491-0.708-0.935-0.947h5.252c-0.486,0.257-0.815,0.616-0.986,1.076c-0.172,0.506-0.257,1.328-0.257,2.473v11.147
			c0,1.257,0.103,2.124,0.308,2.601c0.171,0.392,0.482,0.708,0.936,0.948h-5.252c0.478-0.256,0.807-0.614,0.985-1.077
			c0.171-0.494,0.256-1.319,0.256-2.472V123.639z"/>
		<path stroke="#000000" stroke-width="0.2737" stroke-miterlimit="10" d="M110.73,132.414c0.322-0.282,0.541-0.479,0.649-0.589
			c0.401-0.41,0.6-1.436,0.592-3.076v-11.031c0-1.238-0.1-2.104-0.297-2.602c-0.179-0.382-0.493-0.699-0.944-0.947h2.777
			c0.41,0,1.026-0.004,1.845-0.013c0.839-0.018,1.551-0.026,2.142-0.026c1.802,0,3.288,0.223,4.457,0.667
			c1.879,0.726,3.341,1.845,4.384,3.356c0.981,1.444,1.474,3.097,1.474,4.958c0,2.828-1.047,5.16-3.142,6.996
			c-1.375,1.204-2.941,1.901-4.701,2.089c-1.266,0.145-2.849,0.217-4.753,0.217H110.73z M114.75,130.147
			c0.693,0.137,1.38,0.204,2.062,0.204c2.212,0,3.916-0.408,5.112-1.23c1.897-1.306,2.845-3.214,2.845-5.727
			c0-1.349-0.294-2.609-0.885-3.779c-1.203-2.408-3.402-3.613-6.598-3.613c-0.761,0-1.607,0.102-2.537,0.307V130.147z"/>
		<path stroke="#000000" stroke-width="0.2737" stroke-miterlimit="10" d="M139.573,125.548h-6.982l-1.588,4.228
			c-0.214,0.58-0.321,1.051-0.321,1.41c0,0.452,0.334,0.863,0.999,1.229h-5.086c0.488-0.297,0.889-0.626,1.205-0.986
			c0.282-0.341,0.5-0.68,0.653-1.013c0.128-0.263,0.367-0.841,0.719-1.729l4.868-12.171c0.212-0.522,0.32-0.941,0.32-1.257
			c0-0.452-0.282-0.815-0.846-1.089h4.432l5.805,14.517c0.443,1.094,0.779,1.807,1.012,2.141c0.47,0.684,1.026,1.213,1.667,1.587
			h-5.741c0.317-0.178,0.525-0.306,0.628-0.383c0.249-0.197,0.372-0.432,0.372-0.707c0-0.196-0.162-0.712-0.487-1.549
			L139.573,125.548z M138.856,123.753l-2.793-7.238l-2.818,7.238H138.856z"/>
		<path stroke="#000000" stroke-width="0.2737" stroke-miterlimit="10" d="M152.576,117.718v11.147c0,1.24,0.098,2.105,0.295,2.601
			c0.18,0.385,0.493,0.701,0.946,0.948h-5.266c0.486-0.256,0.822-0.614,1.001-1.077c0.161-0.502,0.243-1.327,0.243-2.472v-11.147
			c0-1.238-0.099-2.104-0.296-2.602c-0.18-0.382-0.495-0.699-0.948-0.947h5.266c-0.496,0.265-0.829,0.625-0.999,1.076
			C152.656,115.751,152.576,116.573,152.576,117.718z M153.024,122.92l3.843-5.086c0.924-1.212,1.386-2.045,1.386-2.499
			c0-0.437-0.292-0.824-0.872-1.166h4.996l-6.38,8.187l0.551,0.743c1.998,2.692,3.296,4.425,3.894,5.202
			c0.829,1.042,1.505,1.794,2.025,2.255c0.563,0.504,1.384,1.123,2.459,1.857c-0.786,0.094-1.668,0.141-2.651,0.141
			c-1.145,0-2.06-0.33-2.742-0.987c-0.546-0.52-1.699-2.016-3.458-4.484C154.552,124.958,153.537,123.57,153.024,122.92z"/>
		<path stroke="#000000" stroke-width="0.2737" stroke-miterlimit="10" d="M173.828,113.696c1.674,0,3.276,0.385,4.805,1.151
			c1.821,0.924,3.179,2.303,4.076,4.141c0.657,1.356,0.986,2.752,0.986,4.188c0,1.998-0.599,3.84-1.795,5.523
			c-1.068,1.503-2.486,2.622-4.253,3.355c-1.308,0.547-2.703,0.822-4.19,0.822c-2.401,0-4.506-0.683-6.316-2.05
			c-1.35-1.017-2.354-2.281-3.009-3.793c-0.515-1.16-0.771-2.378-0.771-3.652c0-1.828,0.501-3.536,1.5-5.125
			c0.948-1.52,2.301-2.685,4.062-3.497C170.435,114.049,172.069,113.696,173.828,113.696z M173.431,115.696
			c-1.331,0-2.597,0.356-3.793,1.075c-1.093,0.666-1.916,1.622-2.473,2.87c-0.453,1.041-0.679,2.14-0.679,3.293
			c0,1.511,0.376,2.95,1.127,4.317c1.333,2.425,3.314,3.64,5.946,3.64c2.245,0,4.018-0.764,5.317-2.295
			c1.118-1.315,1.678-2.977,1.678-4.983c0-2.153-0.633-3.984-1.897-5.498C177.318,116.501,175.574,115.696,173.431,115.696z"/>
		<path stroke="#000000" stroke-width="0.2737" stroke-miterlimit="10" d="M198.908,113.989l-0.909,3.28
			c-0.171-0.341-0.396-0.584-0.679-0.729c-0.395-0.206-1.024-0.309-1.896-0.309c-0.024,0-0.824,0.025-2.396,0.077v12.851
			c0.01,1.008,0.133,1.727,0.374,2.152c0.245,0.427,0.608,0.796,1.088,1.102h-5.472c0.487-0.256,0.814-0.614,0.987-1.077
			c0.17-0.494,0.257-1.319,0.257-2.472v-12.556c-0.693-0.061-1.441-0.09-2.243-0.09c-1.128,0-1.999,0.145-2.612,0.437
			c-0.25,0.109-0.57,0.315-0.964,0.613l1.015-3.28c0.22,0.078,0.694,0.138,1.42,0.18h10.405
			C198.136,114.127,198.678,114.067,198.908,113.989z"/>
		<path stroke="#000000" stroke-width="0.2737" stroke-miterlimit="10" d="M209.54,125.548h-6.983l-1.589,4.228
			c-0.216,0.58-0.322,1.051-0.322,1.41c0,0.452,0.333,0.863,1,1.229h-5.088c0.489-0.297,0.89-0.626,1.205-0.986
			c0.283-0.341,0.501-0.68,0.653-1.013c0.128-0.263,0.368-0.841,0.72-1.729l4.867-12.171c0.213-0.522,0.321-0.941,0.321-1.257
			c0-0.452-0.283-0.815-0.847-1.089h4.433l5.804,14.517c0.444,1.094,0.782,1.807,1.015,2.141c0.469,0.684,1.022,1.213,1.664,1.587
			h-5.739c0.315-0.178,0.525-0.306,0.628-0.383c0.247-0.197,0.37-0.432,0.37-0.707c0-0.196-0.161-0.712-0.485-1.549L209.54,125.548z
			 M208.821,123.753l-2.795-7.238l-2.818,7.238H208.821z"/>
	</g>
	<g>
		<path d="M17.126,110.865v-0.772c-0.166,0.209-0.353,0.38-0.563,0.509c-0.484,0.295-1.03,0.444-1.639,0.444
			c-0.672,0-1.239-0.166-1.7-0.495c-0.422-0.302-0.694-0.722-0.817-1.256c-0.049-0.22-0.073-0.586-0.073-1.096v-3.242
			c0-0.501-0.041-0.849-0.123-1.045c-0.069-0.157-0.194-0.284-0.376-0.381h2.111c-0.194,0.103-0.328,0.247-0.401,0.432
			c-0.065,0.203-0.099,0.535-0.099,0.994v3.242c0,0.39,0.03,0.679,0.089,0.863c0.113,0.368,0.331,0.657,0.653,0.866
			c0.31,0.2,0.667,0.298,1.072,0.298c0.484,0,0.906-0.14,1.267-0.422c0.241-0.188,0.404-0.401,0.489-0.636
			c0.052-0.146,0.077-0.341,0.077-0.589v-3.621c0-0.501-0.042-0.849-0.123-1.045c-0.069-0.157-0.194-0.284-0.376-0.381h2.112
			c-0.195,0.103-0.329,0.247-0.4,0.432c-0.067,0.203-0.1,0.535-0.1,0.994v4.481c0,0.503,0.043,0.85,0.125,1.046
			c0.068,0.158,0.194,0.285,0.375,0.381H17.126z"/>
		<path d="M32.618,105.101v4.456c0.003,0.402,0.053,0.69,0.149,0.866c0.1,0.171,0.246,0.32,0.438,0.443h-1.989
			c0.207-0.13,0.362-0.295,0.465-0.495c0.078-0.16,0.12-0.432,0.123-0.814v-4.718c-0.003-0.413-0.053-0.7-0.149-0.865
			c-0.103-0.175-0.249-0.321-0.439-0.443h1.634c0.03,0.076,0.119,0.213,0.268,0.411l4.121,5.255v-4.358
			c-0.004-0.409-0.054-0.697-0.149-0.865c-0.104-0.175-0.25-0.321-0.439-0.443h1.989c-0.206,0.13-0.361,0.294-0.463,0.495
			c-0.078,0.158-0.121,0.429-0.124,0.813v6.389c-0.588-0.202-1.099-0.59-1.536-1.17L32.618,105.101z"/>
		<path d="M51.929,109.438v-4.481c0-0.498-0.04-0.846-0.12-1.045c-0.07-0.155-0.199-0.281-0.38-0.381h2.117
			c-0.199,0.106-0.333,0.25-0.401,0.432c-0.066,0.203-0.1,0.535-0.1,0.994v4.481c0,0.499,0.042,0.848,0.12,1.046
			c0.072,0.155,0.199,0.281,0.381,0.381H51.43c0.195-0.102,0.33-0.247,0.401-0.433C51.896,110.23,51.929,109.898,51.929,109.438z"/>
		<path d="M68.862,109.537l1.571-4.122c0.227-0.594,0.34-1.011,0.34-1.252c0-0.304-0.137-0.516-0.406-0.633h1.694l-2.982,7.66
			c-0.48-0.31-0.802-0.551-0.964-0.726c-0.106-0.122-0.204-0.286-0.292-0.496c-0.024-0.057-0.084-0.216-0.182-0.473l-1.499-4.081
			c-0.288-0.765-0.468-1.216-0.541-1.349c-0.124-0.216-0.267-0.395-0.432-0.536h1.622c-0.007,0.055-0.01,0.097-0.01,0.124
			c0,0.137,0.086,0.44,0.258,0.907L68.862,109.537z"/>
		<path d="M84.692,107.28v2.654c0.462,0.076,0.923,0.113,1.379,0.113c0.543,0,1.008-0.07,1.396-0.211
			c0.262-0.093,0.516-0.236,0.762-0.428l-0.51,1.458h-4.645c0.194-0.102,0.329-0.25,0.401-0.437
			c0.065-0.203,0.098-0.535,0.098-0.995v-4.477c0-0.501-0.039-0.849-0.118-1.045c-0.071-0.16-0.199-0.288-0.381-0.381h3.709
			c0.164,0,0.305-0.022,0.417-0.066v1.298c-0.161-0.159-0.322-0.267-0.484-0.325c-0.206-0.076-0.497-0.114-0.876-0.114
			c-0.477,0-0.861,0.024-1.147,0.074v2.084h1.487c0.145,0,0.271-0.024,0.382-0.072v1.18c-0.079-0.109-0.174-0.185-0.279-0.228
			c-0.144-0.053-0.345-0.082-0.604-0.082H84.692z"/>
		<path d="M100.531,104.302v5.136c0,0.499,0.039,0.848,0.118,1.046c0.072,0.155,0.198,0.281,0.381,0.381h-2.116
			c0.195-0.102,0.331-0.247,0.402-0.433c0.064-0.203,0.097-0.535,0.097-0.995v-4.481c0-0.498-0.039-0.846-0.118-1.045
			c-0.071-0.155-0.198-0.281-0.381-0.381h1.617c0.024,0.003,0.197,0,0.521-0.01c0.188-0.008,0.345-0.011,0.468-0.011
			c0.71,0,1.261,0.145,1.654,0.432c0.232,0.173,0.418,0.395,0.55,0.665c0.123,0.248,0.186,0.501,0.186,0.758
			c0,0.368-0.137,0.723-0.412,1.067c-0.344,0.418-0.811,0.703-1.4,0.85c0.378,0.519,0.879,1.152,1.504,1.901
			c0.681,0.814,1.315,1.375,1.905,1.684c-0.522,0.041-0.865,0.062-1.035,0.062c-0.355,0-0.672-0.105-0.947-0.314
			c-0.43-0.325-1.038-1.052-1.828-2.178c-0.303-0.435-0.602-0.896-0.897-1.387c1.245-0.217,1.864-0.75,1.864-1.602
			c0-0.367-0.133-0.668-0.404-0.906c-0.252-0.216-0.563-0.325-0.938-0.325C101.099,104.215,100.837,104.244,100.531,104.302z"/>
		<path d="M120.695,103.592v1.268c-0.499-0.488-1.088-0.732-1.768-0.732c-0.498,0-0.888,0.125-1.17,0.376
			c-0.195,0.175-0.294,0.4-0.294,0.676c0,0.262,0.104,0.486,0.314,0.674c0.155,0.137,0.33,0.256,0.521,0.36
			c0.226,0.117,0.498,0.248,0.813,0.392c0.79,0.367,1.331,0.667,1.622,0.902c0.401,0.314,0.604,0.72,0.604,1.215
			c0,0.562-0.23,1.066-0.69,1.509c-0.571,0.545-1.345,0.819-2.324,0.819c-0.659,0-1.318-0.114-1.972-0.341l-0.33-1.391
			c0.727,0.595,1.541,0.892,2.442,0.892c0.497,0,0.911-0.125,1.239-0.371c0.282-0.212,0.425-0.471,0.425-0.772
			c0-0.312-0.124-0.577-0.372-0.788c-0.151-0.135-0.325-0.251-0.527-0.351c-0.248-0.126-0.548-0.272-0.895-0.432
			c-0.746-0.341-1.257-0.633-1.537-0.88c-0.383-0.348-0.575-0.779-0.575-1.294c0-0.344,0.101-0.669,0.299-0.979
			c0.224-0.347,0.575-0.607,1.052-0.778c0.411-0.147,0.883-0.221,1.417-0.221C119.548,103.345,120.116,103.427,120.695,103.592z"/>
		<path d="M133.399,109.438v-4.481c0-0.498-0.039-0.846-0.119-1.045c-0.069-0.155-0.198-0.281-0.378-0.381h2.116
			c-0.198,0.106-0.333,0.25-0.402,0.432c-0.066,0.203-0.1,0.535-0.1,0.994v4.481c0,0.499,0.038,0.848,0.12,1.046
			c0.072,0.155,0.197,0.281,0.382,0.381h-2.116c0.194-0.102,0.328-0.247,0.398-0.433
			C133.367,110.23,133.399,109.898,133.399,109.438z"/>
		<path d="M149.666,109.557c0.004,0.406,0.053,0.695,0.149,0.866c0.1,0.171,0.245,0.32,0.438,0.443h-2.201
			c0.195-0.102,0.329-0.247,0.398-0.433c0.068-0.199,0.101-0.531,0.101-0.995v-5.047c-0.275-0.024-0.577-0.038-0.898-0.038
			c-0.455,0-0.806,0.06-1.054,0.175c-0.099,0.044-0.227,0.127-0.384,0.249l0.404-1.32c0.091,0.031,0.282,0.055,0.574,0.073h4.181
			c0.344-0.018,0.562-0.042,0.656-0.073l-0.365,1.32c-0.069-0.137-0.162-0.235-0.274-0.294c-0.158-0.082-0.412-0.124-0.762-0.124
			c-0.011,0-0.331,0.011-0.964,0.032"/>
		<path d="M166.862,107.651v1.906c0.002,0.41,0.051,0.698,0.142,0.866c0.079,0.134,0.217,0.28,0.413,0.443h-2.139
			c0.191-0.134,0.316-0.278,0.372-0.433c0.064-0.208,0.098-0.538,0.098-0.995v-1.787l-1.928-3.085
			c-0.204-0.33-0.371-0.559-0.498-0.685c-0.11-0.103-0.27-0.22-0.484-0.35l1.128-0.042c0.027,0,0.066,0,0.118,0
			c0.175,0,0.299,0.026,0.365,0.078c0.071,0.051,0.179,0.203,0.33,0.454l1.673,2.734l1.406-2.127
			c0.138-0.212,0.207-0.392,0.207-0.536c0-0.134-0.069-0.272-0.207-0.413c-0.057-0.062-0.125-0.111-0.201-0.149h1.935
			L166.862,107.651z"/>
		<path d="M191.796,103.34c0.673,0,1.316,0.155,1.932,0.463c0.73,0.37,1.277,0.924,1.639,1.663c0.264,0.545,0.396,1.108,0.396,1.686
			c0,0.803-0.24,1.544-0.722,2.22c-0.43,0.605-0.999,1.055-1.712,1.351c-0.524,0.217-1.084,0.329-1.685,0.329
			c-0.964,0-1.811-0.277-2.539-0.827c-0.543-0.407-0.945-0.915-1.209-1.523c-0.205-0.468-0.309-0.957-0.309-1.468
			c0-0.735,0.2-1.42,0.602-2.061c0.382-0.611,0.924-1.079,1.633-1.406C190.432,103.482,191.089,103.34,191.796,103.34z
			 M191.636,104.143c-0.536,0-1.045,0.145-1.524,0.434c-0.44,0.267-0.771,0.652-0.994,1.153c-0.183,0.42-0.272,0.86-0.272,1.324
			c0,0.608,0.149,1.186,0.452,1.736c0.536,0.975,1.333,1.463,2.392,1.463c0.902,0,1.614-0.307,2.137-0.922
			c0.45-0.528,0.674-1.196,0.674-2.004c0-0.864-0.252-1.601-0.762-2.208C193.2,104.466,192.499,104.143,191.636,104.143z"/>
		<path d="M205.511,107.28v2.158c0,0.499,0.038,0.848,0.118,1.046c0.07,0.155,0.2,0.281,0.381,0.381h-2.116
			c0.195-0.102,0.33-0.247,0.399-0.433c0.067-0.203,0.1-0.535,0.1-0.995v-4.481c0-0.498-0.039-0.846-0.119-1.045
			c-0.071-0.155-0.197-0.281-0.38-0.381h3.707c0.174,0,0.312-0.022,0.42-0.066v1.298c-0.162-0.156-0.324-0.263-0.485-0.325
			c-0.205-0.076-0.495-0.114-0.866-0.114c-0.478,0-0.863,0.024-1.158,0.074v2.084H207c0.144,0,0.272-0.024,0.382-0.072v1.18
			c-0.078-0.109-0.172-0.185-0.277-0.228c-0.149-0.053-0.35-0.082-0.604-0.082H205.511z"/>
	</g>
	<g>
		<path d="M219.712,129.11c0.939,0,1.688,0.763,1.688,1.718c0,0.971-0.748,1.727-1.694,1.727c-0.94,0-1.704-0.755-1.704-1.727
			c0-0.955,0.764-1.718,1.704-1.718H219.712z M219.706,129.377c-0.758,0-1.375,0.648-1.375,1.45c0,0.818,0.617,1.459,1.382,1.459
			c0.764,0.007,1.376-0.642,1.376-1.452s-0.612-1.458-1.376-1.458H219.706z M219.385,131.829h-0.307v-1.917
			c0.16-0.024,0.313-0.046,0.542-0.046c0.29,0,0.481,0.062,0.597,0.145c0.114,0.084,0.175,0.214,0.175,0.397
			c0,0.252-0.168,0.405-0.375,0.466v0.015c0.169,0.031,0.283,0.184,0.321,0.466c0.047,0.298,0.092,0.413,0.123,0.474h-0.321
			c-0.045-0.061-0.092-0.237-0.13-0.489c-0.046-0.245-0.168-0.336-0.413-0.336h-0.212V131.829z M219.385,130.767h0.22
			c0.253,0,0.467-0.092,0.467-0.329c0-0.168-0.123-0.336-0.467-0.336c-0.099,0-0.168,0.008-0.22,0.016V130.767z"/>
	</g>
	<g>
		<path fill="#009A44" d="M199.84,95.112c0.939,0,1.688,0.763,1.688,1.719c0,0.969-0.749,1.726-1.696,1.726
			c-0.939,0-1.704-0.757-1.704-1.726c0-0.956,0.765-1.719,1.704-1.719H199.84z M199.833,95.379c-0.757,0-1.374,0.649-1.374,1.452
			c0,0.816,0.617,1.458,1.382,1.458c0.764,0.007,1.375-0.642,1.375-1.452c0-0.81-0.611-1.458-1.375-1.458H199.833z M199.512,97.831
			h-0.307v-1.917c0.162-0.023,0.314-0.046,0.543-0.046c0.289,0,0.48,0.062,0.596,0.146s0.175,0.213,0.175,0.396
			c0,0.252-0.166,0.405-0.373,0.466v0.015c0.168,0.031,0.283,0.184,0.321,0.467c0.045,0.297,0.09,0.412,0.121,0.474h-0.321
			c-0.045-0.062-0.092-0.237-0.13-0.489c-0.045-0.245-0.166-0.336-0.412-0.336h-0.213V97.831z M199.512,96.769h0.221
			c0.252,0,0.467-0.092,0.467-0.329c0-0.168-0.123-0.336-0.467-0.336c-0.1,0-0.168,0.008-0.221,0.016V96.769z"/>
	</g>
</g>
</svg>
