<svg xmlns="http://www.w3.org/2000/svg" xml:space="preserve" viewBox="0 0 226.8 138.733"><path fill="#FF671F" d="M176.493 45.957s6.486 3.683 9.135 11.28c1.331 4.408.637 8.612-.815 11.659-.312.656-.66 1.293-1.037 1.906-1.607 2.615-3.775 4.782-5.804 6.294-2.949 2.384-5.726 3.438-8.951 4.545-1.745.603-3.269.94-5.507 1.707.726-1.722 2.184-3.738 3.301-5.096.627-.763 1.334-1.458 2.008-2.179 1.76-1.892 3.354-3.994 4.362-5.605 1.88-3.08 3.587-6.302 4.517-11.875.254-1.389.305-3.208.234-4.599-.152-4.423-1.443-8.037-1.443-8.037z"/><path fill="#FF671F" d="M159.548 93.685c-1.453-1.565-3.372-4.019-4.488-6.096-1.555-2.903-2.778-6.323-3.241-9.978-.413-3.25-.212-6.724.708-9.591 1.967-6.187 7.233-9.892 10.361-15.52 1.27-2.348 2.156-5.026 2.431-7.744.253-2.594-.214-5.56-1.427-8.151-.451-.94-.951-1.966-1.596-2.93 0 0 1.989.872 3.979 2.57a23.415 23.415 0 0 1 2.716 2.659c.41.472 4.127 5.024 5.301 11.217a33.04 33.04 0 0 1 .499 4.354c.128 6.517-2.235 11.89-4.192 14.7-.858 1.231-1.739 2.438-2.748 3.556-1.877 2.077-3.971 3.901-6.875 8.694-.321.568-.794 1.546-.962 2.071-.37 1.164-.729 2.256-.889 3.237-.335 2.026-.187 3.636-.046 4.806.168 1.398.469 2.143.469 2.146z"/><path fill="#009A44" d="M212.667 49.095c0 13.747-5.08 25.077-15.265 34.015-6.687 5.85-14.299 9.234-22.852 10.148-2.581.304-5.758.351-8.052.334l-3.238-.071s-.723-1.11-.756-3.716c.084-2.761.734-4.223.734-4.223.553.07 1.276.051 1.322.049 4.396-.206 14.284-3.733 19.518-7.316 9.218-6.354 13.822-15.651 13.822-27.86 0-6.554-1.424-12.674-4.294-18.372-5.862-11.713-16.55-17.565-32.085-17.565-3.69 0-10.853.834-15.394 1.825l-.012 82.215c-7.099-2.408-13.284-7.113-18.571-14.135L82.459 27.119v49.754c0 6.069.502 10.275 1.506 12.655.821 1.906 2.338 3.447 4.551 4.604H69.38v-9.351c-1.995 2.537-4.257 4.59-6.792 6.172-5.851 3.573-12.46 5.351-19.816 5.351-8.14 0-14.996-1.981-20.549-5.964-5.105-3.666-8.41-8.738-9.917-15.203-.576-2.663-.861-7.087-.861-13.273V22.667c0-6.056-.501-10.274-1.492-12.639C9.117 8.11 7.599 6.583 5.4 5.422h25.543c-2.37 1.235-3.988 2.984-4.863 5.221-.785 2.457-1.184 6.47-1.184 12.024v39.197c0 4.734.349 8.22 1.054 10.468 1.376 4.438 4.014 7.937 7.911 10.458 3.742 2.418 8.063 3.614 12.963 3.614 5.864 0 10.967-1.694 15.329-5.104 2.905-2.289 4.876-4.865 5.914-7.73.632-1.736.939-4.101.939-7.1V22.667c0-6.056-.5-10.274-1.49-12.639-.837-1.918-2.353-3.445-4.554-4.606l20.229.063c.371.916 1.454 2.575 3.239 4.978l46.231 59.071v-48.19c-.053-4.936-.597-10.179-1.883-12.152-1.334-2.041-1.828-2.251-4.119-3.706 0 0 32.996-.063 35.852-.063 8.772 0 16 1.068 21.683 3.228 9.143 3.538 16.241 8.976 21.31 16.334 4.785 7.019 7.163 15.058 7.163 24.11z"/><g stroke="#000" stroke-width=".274" stroke-miterlimit="10"><path d="M14.501 118.078v11.082c.009 1 .132 1.718.371 2.152.248.427.611.796 1.089 1.102h-4.946a3.154 3.154 0 0 0 1.154-1.229c.197-.402.299-1.077.308-2.025v-11.736c-.009-1.025-.133-1.742-.371-2.152a3.277 3.277 0 0 0-1.09-1.102h4.062c.077.188.3.529.667 1.024l10.25 13.069v-10.839c-.009-1.017-.132-1.733-.372-2.152a3.273 3.273 0 0 0-1.089-1.102h4.946a3.182 3.182 0 0 0-1.153 1.23c-.197.393-.3 1.068-.308 2.024v15.887c-1.46-.495-2.733-1.465-3.818-2.909l-9.7-12.324zM41.685 113.696c1.675 0 3.275.385 4.804 1.151 1.82.924 3.178 2.303 4.074 4.141.658 1.356.986 2.752.986 4.188 0 1.998-.599 3.84-1.793 5.523-1.067 1.503-2.485 2.622-4.254 3.355a10.74 10.74 0 0 1-4.19.822c-2.4 0-4.505-.683-6.315-2.05-1.35-1.017-2.353-2.281-3.01-3.793a8.935 8.935 0 0 1-.77-3.652c0-1.828.5-3.536 1.5-5.125.948-1.52 2.3-2.685 4.061-3.497 1.51-.71 3.146-1.063 4.907-1.063zm-.398 2c-1.332 0-2.596.356-3.792 1.075-1.094.666-1.917 1.622-2.473 2.87a8.17 8.17 0 0 0-.68 3.293c0 1.511.375 2.95 1.128 4.317 1.333 2.425 3.313 3.64 5.945 3.64 2.247 0 4.018-.764 5.317-2.295 1.119-1.315 1.678-2.977 1.678-4.983 0-2.153-.631-3.984-1.896-5.498-1.34-1.614-3.083-2.419-5.227-2.419zM57.772 116.092v12.773c0 1.24.098 2.105.294 2.601.179.385.496.701.95.948h-5.267c.486-.256.82-.614.999-1.077.163-.502.245-1.327.245-2.472v-11.147c0-1.238-.099-2.104-.296-2.602-.179-.382-.495-.699-.947-.947h4.023c.06.008.49 0 1.293-.026.47-.017.859-.026 1.166-.026 1.768 0 3.14.36 4.114 1.076a4.494 4.494 0 0 1 1.37 1.652 4.19 4.19 0 0 1 .461 1.886c0 .913-.342 1.797-1.025 2.652-.855 1.041-2.016 1.746-3.485 2.113.94 1.291 2.186 2.865 3.74 4.728 1.692 2.025 3.272 3.421 4.741 4.189-1.298.103-2.156.154-2.575.154a3.789 3.789 0 0 1-2.357-.781c-1.068-.814-2.584-2.619-4.548-5.421a59.996 59.996 0 0 1-2.23-3.446c3.092-.538 4.639-1.865 4.639-3.984 0-.914-.337-1.667-1.012-2.255-.624-.539-1.401-.808-2.332-.808-.549.002-1.201.074-1.961.22zM82.623 113.989l-.909 3.28c-.172-.341-.397-.584-.681-.729-.392-.206-1.024-.309-1.896-.309-.024 0-.823.025-2.396.077v12.851c.009 1.008.134 1.727.371 2.152.248.427.611.796 1.091 1.102h-5.472c.485-.256.815-.614.986-1.077.17-.494.257-1.319.257-2.472v-12.556c-.692-.061-1.44-.09-2.243-.09-1.127 0-1.999.145-2.613.437-.249.109-.568.315-.961.613l1.011-3.28c.223.078.697.138 1.424.18h10.402c.856-.041 1.397-.101 1.629-.179zM97.621 123.639h-9.992v5.227c0 1.24.098 2.105.293 2.601.179.385.496.701.948.948h-5.266c.486-.256.82-.614 1-1.077.163-.502.243-1.327.243-2.472v-11.147c0-1.238-.099-2.104-.295-2.602-.18-.382-.494-.699-.948-.947h5.266c-.495.265-.829.625-.998 1.076-.162.506-.243 1.328-.243 2.473v3.793h9.992v-3.793c0-1.256-.103-2.122-.307-2.602-.18-.391-.491-.708-.935-.947h5.252c-.486.257-.815.616-.986 1.076-.172.506-.257 1.328-.257 2.473v11.147c0 1.257.103 2.124.308 2.601.171.392.482.708.936.948H96.38c.478-.256.807-.614.985-1.077.171-.494.256-1.319.256-2.472v-5.227zM110.73 132.414c.322-.282.541-.479.649-.589.401-.41.6-1.436.592-3.076v-11.031c0-1.238-.1-2.104-.297-2.602-.179-.382-.493-.699-.944-.947h2.777c.41 0 1.026-.004 1.845-.013.839-.018 1.551-.026 2.142-.026 1.802 0 3.288.223 4.457.667 1.879.726 3.341 1.845 4.384 3.356.981 1.444 1.474 3.097 1.474 4.958 0 2.828-1.047 5.16-3.142 6.996-1.375 1.204-2.941 1.901-4.701 2.089-1.266.145-2.849.217-4.753.217h-4.483zm4.02-2.267c.693.137 1.38.204 2.062.204 2.212 0 3.916-.408 5.112-1.23 1.897-1.306 2.845-3.214 2.845-5.727a8.263 8.263 0 0 0-.885-3.779c-1.203-2.408-3.402-3.613-6.598-3.613-.761 0-1.607.102-2.537.307v13.838zM139.573 125.548h-6.982l-1.588 4.228c-.214.58-.321 1.051-.321 1.41 0 .452.334.863.999 1.229h-5.086a5.144 5.144 0 0 0 1.205-.986c.282-.341.5-.68.653-1.013.128-.263.367-.841.719-1.729l4.868-12.171c.212-.522.32-.941.32-1.257 0-.452-.282-.815-.846-1.089h4.432l5.805 14.517c.443 1.094.779 1.807 1.012 2.141.47.684 1.026 1.213 1.667 1.587h-5.741c.317-.178.525-.306.628-.383.249-.197.372-.432.372-.707 0-.196-.162-.712-.487-1.549l-1.629-4.228zm-.717-1.795-2.793-7.238-2.818 7.238h5.611zM152.576 117.718v11.147c0 1.24.098 2.105.295 2.601.18.385.493.701.946.948h-5.266c.486-.256.822-.614 1.001-1.077.161-.502.243-1.327.243-2.472v-11.147c0-1.238-.099-2.104-.296-2.602-.18-.382-.495-.699-.948-.947h5.266c-.496.265-.829.625-.999 1.076-.162.506-.242 1.328-.242 2.473zm.448 5.202 3.843-5.086c.924-1.212 1.386-2.045 1.386-2.499 0-.437-.292-.824-.872-1.166h4.996l-6.38 8.187.551.743a485.639 485.639 0 0 0 3.894 5.202c.829 1.042 1.505 1.794 2.025 2.255.563.504 1.384 1.123 2.459 1.857a22.47 22.47 0 0 1-2.651.141c-1.145 0-2.06-.33-2.742-.987-.546-.52-1.699-2.016-3.458-4.484-1.523-2.125-2.538-3.513-3.051-4.163z"/><path d="M173.828 113.696c1.674 0 3.276.385 4.805 1.151 1.821.924 3.179 2.303 4.076 4.141.657 1.356.986 2.752.986 4.188 0 1.998-.599 3.84-1.795 5.523-1.068 1.503-2.486 2.622-4.253 3.355a10.744 10.744 0 0 1-4.19.822c-2.401 0-4.506-.683-6.316-2.05-1.35-1.017-2.354-2.281-3.009-3.793a8.903 8.903 0 0 1-.771-3.652c0-1.828.501-3.536 1.5-5.125.948-1.52 2.301-2.685 4.062-3.497 1.512-.71 3.146-1.063 4.905-1.063zm-.397 2c-1.331 0-2.597.356-3.793 1.075-1.093.666-1.916 1.622-2.473 2.87a8.169 8.169 0 0 0-.679 3.293c0 1.511.376 2.95 1.127 4.317 1.333 2.425 3.314 3.64 5.946 3.64 2.245 0 4.018-.764 5.317-2.295 1.118-1.315 1.678-2.977 1.678-4.983 0-2.153-.633-3.984-1.897-5.498-1.339-1.614-3.083-2.419-5.226-2.419zM198.908 113.989l-.909 3.28c-.171-.341-.396-.584-.679-.729-.395-.206-1.024-.309-1.896-.309-.024 0-.824.025-2.396.077v12.851c.01 1.008.133 1.727.374 2.152.245.427.608.796 1.088 1.102h-5.472c.487-.256.814-.614.987-1.077.17-.494.257-1.319.257-2.472v-12.556a25.695 25.695 0 0 0-2.243-.09c-1.128 0-1.999.145-2.612.437-.25.109-.57.315-.964.613l1.015-3.28c.22.078.694.138 1.42.18h10.405c.853-.041 1.395-.101 1.625-.179zM209.54 125.548h-6.983l-1.589 4.228c-.216.58-.322 1.051-.322 1.41 0 .452.333.863 1 1.229h-5.088c.489-.297.89-.626 1.205-.986.283-.341.501-.68.653-1.013.128-.263.368-.841.72-1.729l4.867-12.171c.213-.522.321-.941.321-1.257 0-.452-.283-.815-.847-1.089h4.433l5.804 14.517c.444 1.094.782 1.807 1.015 2.141.469.684 1.022 1.213 1.664 1.587h-5.739c.315-.178.525-.306.628-.383.247-.197.37-.432.37-.707 0-.196-.161-.712-.485-1.549l-1.627-4.228zm-.719-1.795-2.795-7.238-2.818 7.238h5.613z"/></g><path d="M17.126 110.865v-.772c-.166.209-.353.38-.563.509a3.086 3.086 0 0 1-1.639.444c-.672 0-1.239-.166-1.7-.495-.422-.302-.694-.722-.817-1.256-.049-.22-.073-.586-.073-1.096v-3.242c0-.501-.041-.849-.123-1.045a.8.8 0 0 0-.376-.381h2.111a.828.828 0 0 0-.401.432c-.065.203-.099.535-.099.994v3.242c0 .39.03.679.089.863.113.368.331.657.653.866.31.2.667.298 1.072.298.484 0 .906-.14 1.267-.422.241-.188.404-.401.489-.636.052-.146.077-.341.077-.589v-3.621c0-.501-.042-.849-.123-1.045a.8.8 0 0 0-.376-.381h2.112a.814.814 0 0 0-.4.432c-.067.203-.1.535-.1.994v4.481c0 .503.043.85.125 1.046a.79.79 0 0 0 .375.381h-1.58zM32.618 105.101v4.456c.003.402.053.69.149.866.1.171.246.32.438.443h-1.989c.207-.13.362-.295.465-.495.078-.16.12-.432.123-.814v-4.718c-.003-.413-.053-.7-.149-.865a1.326 1.326 0 0 0-.439-.443h1.634c.03.076.119.213.268.411l4.121 5.255v-4.358c-.004-.409-.054-.697-.149-.865a1.345 1.345 0 0 0-.439-.443h1.989c-.206.13-.361.294-.463.495-.078.158-.121.429-.124.813v6.389c-.588-.202-1.099-.59-1.536-1.17l-3.899-4.957zM51.929 109.438v-4.481c0-.498-.04-.846-.12-1.045a.842.842 0 0 0-.38-.381h2.117a.81.81 0 0 0-.401.432c-.066.203-.1.535-.1.994v4.481c0 .499.042.848.12 1.046a.849.849 0 0 0 .381.381H51.43a.811.811 0 0 0 .401-.433c.065-.202.098-.534.098-.994zM68.862 109.537l1.571-4.122c.227-.594.34-1.011.34-1.252 0-.304-.137-.516-.406-.633h1.694l-2.982 7.66c-.48-.31-.802-.551-.964-.726a1.833 1.833 0 0 1-.292-.496c-.024-.057-.084-.216-.182-.473l-1.499-4.081c-.288-.765-.468-1.216-.541-1.349a2.012 2.012 0 0 0-.432-.536h1.622a1.06 1.06 0 0 0-.01.124c0 .137.086.44.258.907l1.823 4.977zM84.692 107.28v2.654c.462.076.923.113 1.379.113.543 0 1.008-.07 1.396-.211a2.72 2.72 0 0 0 .762-.428l-.51 1.458h-4.645a.823.823 0 0 0 .401-.437c.065-.203.098-.535.098-.995v-4.477c0-.501-.039-.849-.118-1.045a.791.791 0 0 0-.381-.381h3.709c.164 0 .305-.022.417-.066v1.298a1.351 1.351 0 0 0-.484-.325c-.206-.076-.497-.114-.876-.114-.477 0-.861.024-1.147.074v2.084h1.487a.95.95 0 0 0 .382-.072v1.18a.652.652 0 0 0-.279-.228 1.803 1.803 0 0 0-.604-.082h-.987zM100.531 104.302v5.136c0 .499.039.848.118 1.046a.844.844 0 0 0 .381.381h-2.116a.813.813 0 0 0 .402-.433c.064-.203.097-.535.097-.995v-4.481c0-.498-.039-.846-.118-1.045a.84.84 0 0 0-.381-.381h1.617c.024.003.197 0 .521-.01.188-.008.345-.011.468-.011.71 0 1.261.145 1.654.432.232.173.418.395.55.665.123.248.186.501.186.758 0 .368-.137.723-.412 1.067-.344.418-.811.703-1.4.85.378.519.879 1.152 1.504 1.901.681.814 1.315 1.375 1.905 1.684a16.85 16.85 0 0 1-1.035.062c-.355 0-.672-.105-.947-.314-.43-.325-1.038-1.052-1.828-2.178a24.493 24.493 0 0 1-.897-1.387c1.245-.217 1.864-.75 1.864-1.602a1.15 1.15 0 0 0-.404-.906c-.252-.216-.563-.325-.938-.325a4.227 4.227 0 0 0-.791.086zM120.695 103.592v1.268c-.499-.488-1.088-.732-1.768-.732-.498 0-.888.125-1.17.376a.868.868 0 0 0-.294.676c0 .262.104.486.314.674.155.137.33.256.521.36.226.117.498.248.813.392.79.367 1.331.667 1.622.902.401.314.604.72.604 1.215 0 .562-.23 1.066-.69 1.509-.571.545-1.345.819-2.324.819a5.987 5.987 0 0 1-1.972-.341l-.33-1.391c.727.595 1.541.892 2.442.892.497 0 .911-.125 1.239-.371.282-.212.425-.471.425-.772a.997.997 0 0 0-.372-.788 2.337 2.337 0 0 0-.527-.351 26.357 26.357 0 0 0-.895-.432c-.746-.341-1.257-.633-1.537-.88a1.678 1.678 0 0 1-.575-1.294c0-.344.101-.669.299-.979.224-.347.575-.607 1.052-.778a4.195 4.195 0 0 1 1.417-.221c.559 0 1.127.082 1.706.247zM133.399 109.438v-4.481c0-.498-.039-.846-.119-1.045a.837.837 0 0 0-.378-.381h2.116a.82.82 0 0 0-.402.432c-.066.203-.1.535-.1.994v4.481c0 .499.038.848.12 1.046a.837.837 0 0 0 .382.381h-2.116a.806.806 0 0 0 .398-.433c.067-.202.099-.534.099-.994zM149.666 109.557c.004.406.053.695.149.866.1.171.245.32.438.443h-2.201a.798.798 0 0 0 .398-.433c.068-.199.101-.531.101-.995v-5.047a10.378 10.378 0 0 0-.898-.038c-.455 0-.806.06-1.054.175a2.02 2.02 0 0 0-.384.249l.404-1.32c.091.031.282.055.574.073h4.181c.344-.018.562-.042.656-.073l-.365 1.32a.65.65 0 0 0-.274-.294c-.158-.082-.412-.124-.762-.124l-.964.032M166.862 107.651v1.906c.002.41.051.698.142.866.079.134.217.28.413.443h-2.139c.191-.134.316-.278.372-.433.064-.208.098-.538.098-.995v-1.787l-1.928-3.085c-.204-.33-.371-.559-.498-.685-.11-.103-.27-.22-.484-.35l1.128-.042h.118c.175 0 .299.026.365.078.071.051.179.203.33.454l1.673 2.734 1.406-2.127c.138-.212.207-.392.207-.536 0-.134-.069-.272-.207-.413a.688.688 0 0 0-.201-.149h1.935l-2.73 4.121zM191.796 103.34c.673 0 1.316.155 1.932.463.73.37 1.277.924 1.639 1.663.264.545.396 1.108.396 1.686 0 .803-.24 1.544-.722 2.22a3.872 3.872 0 0 1-1.712 1.351 4.356 4.356 0 0 1-1.685.329c-.964 0-1.811-.277-2.539-.827a3.734 3.734 0 0 1-1.209-1.523 3.62 3.62 0 0 1-.309-1.468c0-.735.2-1.42.602-2.061.382-.611.924-1.079 1.633-1.406a4.602 4.602 0 0 1 1.974-.427zm-.16.803c-.536 0-1.045.145-1.524.434-.44.267-.771.652-.994 1.153-.183.42-.272.86-.272 1.324 0 .608.149 1.186.452 1.736.536.975 1.333 1.463 2.392 1.463.902 0 1.614-.307 2.137-.922.45-.528.674-1.196.674-2.004 0-.864-.252-1.601-.762-2.208-.539-.653-1.24-.976-2.103-.976zM205.511 107.28v2.158c0 .499.038.848.118 1.046.07.155.2.281.381.381h-2.116a.8.8 0 0 0 .399-.433c.067-.203.1-.535.1-.995v-4.481c0-.498-.039-.846-.119-1.045a.837.837 0 0 0-.38-.381h3.707c.174 0 .312-.022.42-.066v1.298a1.473 1.473 0 0 0-.485-.325c-.205-.076-.495-.114-.866-.114-.478 0-.863.024-1.158.074v2.084H207a.95.95 0 0 0 .382-.072v1.18a.641.641 0 0 0-.277-.228 1.845 1.845 0 0 0-.604-.082h-.99zM219.712 129.11c.939 0 1.688.763 1.688 1.718 0 .971-.748 1.727-1.694 1.727-.94 0-1.704-.755-1.704-1.727 0-.955.764-1.718 1.704-1.718h.006zm-.006.267c-.758 0-1.375.648-1.375 1.45 0 .818.617 1.459 1.382 1.459.764.007 1.376-.642 1.376-1.452s-.612-1.458-1.376-1.458h-.007zm-.321 2.452h-.307v-1.917c.16-.024.313-.046.542-.046.29 0 .481.062.597.145.114.084.175.214.175.397 0 .252-.168.405-.375.466v.015c.169.031.283.184.321.466.047.298.092.413.123.474h-.321c-.045-.061-.092-.237-.13-.489-.046-.245-.168-.336-.413-.336h-.212v.825zm0-1.062h.22c.253 0 .467-.092.467-.329 0-.168-.123-.336-.467-.336-.099 0-.168.008-.22.016v.649z"/><path fill="#009A44" d="M199.84 95.112c.939 0 1.688.763 1.688 1.719 0 .969-.749 1.726-1.696 1.726a1.706 1.706 0 0 1-1.704-1.726c0-.956.765-1.719 1.704-1.719h.008zm-.007.267c-.757 0-1.374.649-1.374 1.452 0 .816.617 1.458 1.382 1.458.764.007 1.375-.642 1.375-1.452 0-.81-.611-1.458-1.375-1.458h-.008zm-.321 2.452h-.307v-1.917c.162-.023.314-.046.543-.046.289 0 .48.062.596.146s.175.213.175.396c0 .252-.166.405-.373.466v.015c.168.031.283.184.321.467.045.297.09.412.121.474h-.321c-.045-.062-.092-.237-.13-.489-.045-.245-.166-.336-.412-.336h-.213v.824zm0-1.062h.221c.252 0 .467-.092.467-.329 0-.168-.123-.336-.467-.336-.1 0-.168.008-.221.016v.649z"/></svg>
