<?xml version="1.0" standalone="no"?>
<!DOCTYPE svg PUBLIC "-//W3C//DTD SVG 20010904//EN"
 "http://www.w3.org/TR/2001/REC-SVG-20010904/DTD/svg10.dtd">
<svg version="1.0" xmlns="http://www.w3.org/2000/svg"
 width="260.000000pt" height="260.000000pt" viewBox="0 0 260.000000 260.000000"
 preserveAspectRatio="xMidYMid meet">
<metadata>
Created by potrace 1.11, written by Peter Selinger 2001-2013
</metadata>
<g transform="translate(0.000000,260.000000) scale(0.100000,-0.100000)"
fill="#000000" stroke="none">
<path d="M0 1300 l0 -1300 1300 0 1300 0 0 1300 0 1300 -1300 0 -1300 0 0
-1300z m437 487 c-41 -32 -46 -73 -47 -383 0 -322 5 -350 76 -413 111 -97 301
-69 371 54 22 39 23 48 23 345 0 169 -4 320 -10 339 -5 19 -19 45 -32 58 l-21
23 115 0 c104 0 116 -2 124 -19 5 -11 122 -163 259 -339 l250 -319 3 276 c1
152 0 290 -3 308 -3 18 -17 46 -31 63 l-26 30 244 0 c268 0 337 -9 434 -57 73
-35 172 -126 207 -191 104 -191 63 -441 -97 -589 -80 -74 -160 -111 -273 -125
-113 -15 -123 -11 -123 45 l0 43 57 12 c136 28 242 105 291 211 23 48 27 70
27 151 0 196 -84 322 -249 372 -57 17 -85 20 -171 15 -57 -2 -108 -8 -114 -11
-8 -5 -11 -143 -11 -452 0 -301 -3 -444 -10 -444 -20 0 -85 38 -127 75 -24 20
-156 181 -295 358 l-253 322 -3 -295 c-1 -162 0 -310 3 -329 4 -18 18 -44 32
-57 l26 -24 -112 0 -111 0 0 40 0 40 -46 -35 c-58 -45 -139 -68 -234 -68 -143
0 -249 53 -305 154 l-30 54 -5 350 c-6 368 -8 380 -54 417 -20 17 -15 18 129
18 l150 0 -28 -23z m1518 -353 c39 -52 55 -97 55 -162 0 -84 -24 -142 -85
-211 -59 -66 -90 -134 -83 -182 l5 -31 -19 23 c-29 38 -46 76 -59 133 -17 76
0 135 58 210 80 104 100 176 69 251 l-15 35 24 -16 c13 -8 36 -31 50 -50z
m171 -180 c30 -79 -5 -177 -83 -231 -28 -20 -143 -67 -149 -60 -2 1 22 34 53
72 82 102 98 143 97 243 l0 83 33 -33 c18 -17 40 -51 49 -74z"/>
</g>
</svg>
